<svg width="128" height="34" viewBox="0 0 128 34" fill="none" xmlns="http://www.w3.org/2000/svg">
<path d="M127.481 3.19627C127.589 2.65473 127.238 2.12785 126.696 2.01945L117.871 0.253025C117.33 0.144627 116.803 0.495762 116.694 1.0373C116.586 1.57885 116.937 2.10573 117.479 2.21412L125.323 3.78428L123.753 11.6287C123.645 12.1702 123.996 12.6971 124.537 12.8055C125.079 12.9139 125.606 12.5628 125.714 12.0212L127.481 3.19627ZM125.945 2.16786C124.64 3.03757 123.332 3.88512 122.02 4.71091L123.085 6.40368C124.413 5.56839 125.735 4.71133 127.055 3.83214L125.945 2.16786ZM113.978 9.46603C111.244 10.9795 108.481 12.4054 105.677 13.7469L106.54 15.551C109.38 14.1921 112.179 12.7481 114.947 11.2158L113.978 9.46603ZM97.1344 17.5211C94.2715 18.6838 91.3576 19.7675 88.382 20.7754L89.0236 22.6697C92.0362 21.6493 94.9871 20.5518 97.8869 19.3741L97.1344 17.5211ZM79.4494 23.5222C76.496 24.3419 73.4769 25.096 70.3829 25.7871L70.8189 27.739C73.9449 27.0408 76.997 26.2785 79.9843 25.4493L79.4494 23.5222ZM61.2028 27.6149C58.1953 28.1445 55.1158 28.6222 51.957 29.05L52.2254 31.0319C55.4092 30.6007 58.5148 30.119 61.5496 29.5846L61.2028 27.6149ZM42.6585 30.144C39.6208 30.4502 36.5108 30.7163 33.3226 30.944L33.4651 32.9389C36.6715 32.7099 39.8009 32.4422 42.8591 32.1339L42.6585 30.144ZM23.9632 31.4926C20.9092 31.6348 17.7857 31.746 14.5882 31.8277L14.6393 33.8271C17.8498 33.7451 20.9874 33.6333 24.0562 33.4905L23.9632 31.4926ZM5.19987 31.9819C3.65013 31.994 2.08366 32 0.5 32V34C2.08869 34 3.66039 33.994 5.21548 33.9818L5.19987 31.9819Z" fill="#FF6F55"/>
</svg>
