<svg width="128" height="34" viewBox="0 0 128 34" fill="none" xmlns="http://www.w3.org/2000/svg">
<path d="M127.481 30.8037C127.589 31.3453 127.238 31.8722 126.696 31.9806L117.871 33.747C117.33 33.8554 116.803 33.5042 116.694 32.9627C116.586 32.4212 116.937 31.8943 117.479 31.7859L125.323 30.2157L123.753 22.3713C123.645 21.8298 123.996 21.3029 124.537 21.1945C125.079 21.0861 125.606 21.4372 125.714 21.9788L127.481 30.8037ZM125.945 31.8321C124.64 30.9624 123.332 30.1149 122.02 29.2891L123.085 27.5963C124.413 28.4316 125.735 29.2887 127.055 30.1679L125.945 31.8321ZM113.978 24.534C111.244 23.0205 108.481 21.5946 105.677 20.2531L106.54 18.449C109.38 19.8079 112.179 21.2519 114.947 22.7842L113.978 24.534ZM97.1344 16.4789C94.2715 15.3162 91.3576 14.2325 88.382 13.2246L89.0236 11.3303C92.0362 12.3507 94.9871 13.4482 97.8869 14.6259L97.1344 16.4789ZM79.4494 10.4778C76.496 9.65807 73.4769 8.90398 70.3829 8.21292L70.8189 6.26101C73.9449 6.95922 76.997 7.72152 79.9843 8.55068L79.4494 10.4778ZM61.2028 6.38508C58.1953 5.85552 55.1158 5.37784 51.957 4.94995L52.2254 2.96805C55.4092 3.39931 58.5148 3.88101 61.5496 4.41538L61.2028 6.38508ZM42.6585 3.85601C39.6208 3.5498 36.5108 3.28367 33.3226 3.05602L33.4651 1.0611C36.6715 1.29005 39.8009 1.55782 42.8591 1.86609L42.6585 3.85601ZM23.9632 2.50738C20.9092 2.36524 17.7857 2.25395 14.5882 2.17228L14.6393 0.172934C17.8498 0.254939 20.9874 0.366712 24.0562 0.509538L23.9632 2.50738ZM5.19987 2.01809C3.65013 2.00599 2.08366 2 0.5 2V0C2.08869 0 3.66039 0.00600767 5.21548 0.0181503L5.19987 2.01809Z" fill="#FF6F55"/>
</svg>
