<svg width="74" height="25" viewBox="0 0 74 25" fill="none" xmlns="http://www.w3.org/2000/svg">
<path d="M28.5005 18.2293C28.5111 18.2571 28.5377 18.2754 28.5674 18.2754H30.3735C30.3971 18.2754 30.4193 18.2637 30.4326 18.2442C30.446 18.2246 30.4489 18.1998 30.4403 18.1777L26.4268 7.85732C26.4161 7.82976 26.3895 7.81161 26.36 7.81163C26.3304 7.81165 26.3039 7.82983 26.2932 7.85741L22.294 18.1778C22.2855 18.1999 22.2883 18.2247 22.3017 18.2442C22.3151 18.2637 22.3372 18.2754 22.3608 18.2754H24.1669C24.1969 18.2754 24.2237 18.2567 24.2341 18.2286L24.6468 17.1143H28.0738L28.5005 18.2293ZM37.0473 12.4271C37.0077 12.4271 36.9756 12.4592 36.9756 12.4988V14.0899C36.9756 14.1295 37.0077 14.1615 37.0473 14.1615H38.6527V15.5104C38.0503 16.1858 37.1884 16.5983 36.2159 16.5983C35.3041 16.5983 34.4886 16.3439 33.9015 15.7952C33.3154 15.2474 32.9478 14.3974 32.9478 13.1868C32.9478 12.1072 33.3143 11.2555 33.903 10.6738C34.492 10.0918 35.3082 9.77537 36.2159 9.77537C37.1138 9.77537 37.9414 10.1402 38.5303 10.7291C38.5437 10.7425 38.562 10.7501 38.581 10.7501C38.6 10.7501 38.6182 10.7425 38.6317 10.7291L39.807 9.55371C39.8349 9.52588 39.8351 9.4808 39.8074 9.45275C38.8913 8.5221 37.626 7.95497 36.2159 7.95497C33.4092 7.95497 31.1274 10.1665 31.1274 13.1868C31.1274 14.8438 31.6595 16.1529 32.5383 17.0481C33.4169 17.9431 34.6366 18.4187 36.0009 18.4187C37.154 18.4187 37.9951 18.1516 38.7949 17.45L38.868 18.2532C38.8713 18.2901 38.9023 18.3184 38.9393 18.3184H40.4014C40.441 18.3184 40.4731 18.2863 40.4731 18.2467V12.4988C40.4731 12.4592 40.441 12.4271 40.4014 12.4271H37.0473ZM49.2803 9.91871C49.3199 9.91871 49.352 9.88663 49.352 9.84704V8.16998C49.352 8.1304 49.3199 8.09831 49.2803 8.09831H42.5864C42.5468 8.09831 42.5147 8.1304 42.5147 8.16998V18.2037C42.5147 18.2433 42.5468 18.2754 42.5864 18.2754H49.2803C49.3199 18.2754 49.352 18.2433 49.352 18.2037V16.5266C49.352 16.4871 49.3199 16.455 49.2803 16.455H44.3351V14.0899H48.4346C48.4742 14.0899 48.5063 14.0578 48.5063 14.0182V12.3555C48.5063 12.3159 48.4742 12.2838 48.4346 12.2838H44.3351V9.91871H49.2803ZM56.4027 16.455H52.7619V8.16998C52.7619 8.1304 52.7298 8.09831 52.6902 8.09831H51.0132C50.9736 8.09831 50.9415 8.1304 50.9415 8.16998V18.2037C50.9415 18.2433 50.9736 18.2754 51.0132 18.2754H56.4027C56.4423 18.2754 56.4744 18.2433 56.4744 18.2037V16.5266C56.4744 16.4871 56.4423 16.455 56.4027 16.455ZM63.2014 18.2293C63.212 18.2571 63.2386 18.2754 63.2683 18.2754H65.0744C65.098 18.2754 65.1202 18.2637 65.1335 18.2442C65.1469 18.2246 65.1498 18.1998 65.1412 18.1777L61.1277 7.85732C61.117 7.82976 61.0904 7.81161 61.0609 7.81163C61.0313 7.81165 61.0048 7.82983 60.9941 7.85741L56.9949 18.1778C56.9864 18.1999 56.9893 18.2247 57.0026 18.2442C57.016 18.2637 57.0381 18.2754 57.0617 18.2754H58.8678C58.8978 18.2754 58.9246 18.2567 58.935 18.2286L59.3477 17.1143H62.7747L63.2014 18.2293ZM73.4252 18.2754C73.4513 18.2754 73.4753 18.2612 73.4879 18.2384C73.5005 18.2157 73.4998 18.1878 73.486 18.1657L70.8128 13.8886C71.2841 13.7459 71.8071 13.5016 72.2218 13.0851C72.6655 12.6396 72.9809 12.0014 72.9809 11.0941C72.9809 10.3483 72.7667 9.78453 72.4421 9.36005C72.1182 8.93654 71.6877 8.65589 71.2608 8.46979C70.8339 8.28371 70.408 8.19102 70.0895 8.14474C69.93 8.12158 69.797 8.10997 69.7037 8.10416C69.657 8.10125 69.6201 8.09979 69.5948 8.09905L69.5657 8.09841L69.558 8.09832L69.5559 8.09831L69.5554 8.09831L69.5552 8.09831L69.5551 8.16998V8.09831H66.2153C66.1757 8.09831 66.1436 8.1304 66.1436 8.16998V9.84704C66.1436 9.86064 66.1475 9.87395 66.1548 9.88543L67.676 12.2838H66.2153C66.1757 12.2838 66.1436 12.3159 66.1436 12.3555V18.2037C66.1436 18.2433 66.1757 18.2754 66.2153 18.2754H67.8923C67.9319 18.2754 67.964 18.2433 67.964 18.2037V14.0899H68.8129L71.4007 18.2416C71.4138 18.2626 71.4367 18.2754 71.4615 18.2754H73.4252ZM26.36 12.3289L27.4774 15.5233H25.2426L26.36 12.3289ZM59.9435 15.5233L61.0609 12.3289L62.1783 15.5233H59.9435ZM69.8071 12.2652L68.3372 9.91871H69.5551L69.5552 9.91871L69.5559 9.91872L69.559 9.91875L69.5721 9.919C69.5838 9.91929 69.6011 9.91987 69.6233 9.92105C69.6678 9.92341 69.7316 9.92815 69.8083 9.93766C69.9621 9.95671 70.1659 9.99472 70.3686 10.0701C70.5717 10.1456 70.7699 10.2572 70.9167 10.421C71.0623 10.5833 71.1605 10.8001 71.1605 11.0941C71.1605 11.5579 70.9244 11.8378 70.6313 12.0106C70.3537 12.1743 70.0266 12.2401 69.8071 12.2652Z" fill="url(#paint0_linear_47_430)" stroke="url(#paint1_linear_47_430)" stroke-width="0.143339" stroke-linejoin="round"/>
<path d="M28.5507 18.2101C28.5533 18.217 28.56 18.2216 28.5674 18.2216H30.3735C30.3794 18.2216 30.3849 18.2187 30.3883 18.2138C30.3916 18.2089 30.3923 18.2027 30.3902 18.1972L26.3767 7.87681C26.374 7.86992 26.3674 7.86538 26.36 7.86538C26.3526 7.86539 26.346 7.86993 26.3433 7.87683L22.3441 18.1972C22.342 18.2027 22.3427 18.209 22.3461 18.2138C22.3494 18.2187 22.3549 18.2216 22.3608 18.2216H24.1669C24.1744 18.2216 24.1811 18.217 24.1837 18.2099L24.6094 17.0606H28.1107L28.5507 18.2101ZM37.0473 12.4809C37.0374 12.4809 37.0293 12.4889 37.0293 12.4988V14.0899C37.0293 14.0998 37.0374 14.1078 37.0473 14.1078H38.7064V15.5308C38.0935 16.2264 37.2115 16.6521 36.2159 16.6521C35.2945 16.6521 34.4644 16.395 33.8648 15.8345C33.2654 15.2742 32.894 14.4086 32.894 13.1868C32.894 12.0945 33.2652 11.2285 33.8652 10.6356C34.4653 10.0426 35.2956 9.72162 36.2159 9.72162C37.1284 9.72162 37.9696 10.0923 38.5683 10.6911C38.5717 10.6944 38.5762 10.6963 38.581 10.6963C38.5857 10.6963 38.5903 10.6944 38.5937 10.6911L39.769 9.5157C39.776 9.50874 39.776 9.49747 39.7691 9.49046C38.8628 8.56977 37.6112 8.00872 36.2159 8.00872C33.4394 8.00872 31.1811 10.1957 31.1811 13.1868C31.1811 14.832 31.7092 16.1268 32.5766 17.0104C33.444 17.894 34.6493 18.365 36.0009 18.365C37.1814 18.365 38.0262 18.0833 38.8388 17.3385L38.9215 18.2483C38.9223 18.2576 38.9301 18.2646 38.9393 18.2646H40.4014C40.4113 18.2646 40.4193 18.2566 40.4193 18.2467V12.4988C40.4193 12.4889 40.4113 12.4809 40.4014 12.4809H37.0473ZM49.2803 9.86496C49.2902 9.86496 49.2983 9.85694 49.2983 9.84704V8.16998C49.2983 8.16008 49.2902 8.15206 49.2803 8.15206H42.5864C42.5765 8.15206 42.5685 8.16008 42.5685 8.16998V18.2037C42.5685 18.2136 42.5765 18.2216 42.5864 18.2216H49.2803C49.2902 18.2216 49.2983 18.2136 49.2983 18.2037V16.5266C49.2983 16.5167 49.2902 16.5087 49.2803 16.5087H44.2814V14.0361H48.4346C48.4445 14.0361 48.4526 14.0281 48.4526 14.0182V12.3555C48.4526 12.3456 48.4445 12.3376 48.4346 12.3376H44.2814V9.86496H49.2803ZM56.4027 16.5087H52.7082V8.16998C52.7082 8.16008 52.7001 8.15206 52.6902 8.15206H51.0132C51.0033 8.15206 50.9953 8.16008 50.9953 8.16998V18.2037C50.9953 18.2136 51.0033 18.2216 51.0132 18.2216H56.4027C56.4126 18.2216 56.4206 18.2136 56.4206 18.2037V16.5266C56.4206 16.5167 56.4126 16.5087 56.4027 16.5087ZM63.2516 18.2101C63.2542 18.217 63.2609 18.2216 63.2683 18.2216H65.0744C65.0803 18.2216 65.0858 18.2187 65.0892 18.2138C65.0925 18.2089 65.0932 18.2027 65.0911 18.1972L61.0776 7.87681C61.0749 7.86992 61.0683 7.86538 61.0609 7.86538C61.0535 7.86539 61.0469 7.86993 61.0442 7.87683L57.045 18.1972C57.0429 18.2027 57.0436 18.209 57.047 18.2138C57.0503 18.2187 57.0558 18.2216 57.0617 18.2216H58.8678C58.8753 18.2216 58.882 18.217 58.8846 18.2099L59.3103 17.0606H62.8116L63.2516 18.2101ZM73.4252 18.2216C73.4317 18.2216 73.4377 18.2181 73.4409 18.2124C73.4441 18.2067 73.4439 18.1997 73.4404 18.1942L70.7296 13.857C71.213 13.7191 71.7575 13.4752 72.1837 13.0472C72.6171 12.612 72.9271 11.9874 72.9271 11.0941C72.9271 10.3594 72.7163 9.80723 72.3994 9.39271C72.0826 8.97842 71.6605 8.70266 71.2393 8.51907C70.8181 8.33548 70.3972 8.24377 70.0817 8.19794C69.924 8.17501 69.7924 8.16354 69.7003 8.15781C69.6542 8.15494 69.618 8.1535 69.5933 8.15278L69.5649 8.15215L69.5576 8.15207L69.5557 8.15206L69.5553 8.15206L69.5551 8.15206L66.2153 8.15206C66.2054 8.15206 66.1974 8.16008 66.1974 8.16998V9.84704H66.1941L66.2001 9.85664L67.7738 12.3376H66.2153C66.2054 12.3376 66.1974 12.3456 66.1974 12.3555V18.2037C66.1974 18.2136 66.2054 18.2216 66.2153 18.2216H67.8923C67.9022 18.2216 67.9103 18.2136 67.9103 18.2037V14.0361H68.8428L71.4463 18.2132C71.4496 18.2184 71.4553 18.2216 71.4615 18.2216H73.4252ZM25.1669 15.577L26.36 12.1661L27.5531 15.577H25.1669ZM59.8678 15.577L61.0609 12.1661L62.254 15.577H59.8678ZM69.7794 12.3222L68.2401 9.86496H69.5551H69.5551L69.5553 9.86496L69.5562 9.86497L69.5597 9.865L69.5735 9.86526C69.5856 9.86556 69.6034 9.86616 69.6262 9.86737C69.6717 9.86979 69.7368 9.87463 69.8149 9.88431C69.9713 9.90369 70.1795 9.94242 70.3874 10.0197C70.5954 10.0971 70.8021 10.2126 70.9568 10.3851C71.1111 10.5572 71.2142 10.7868 71.2142 11.0941C71.2142 11.5809 70.9644 11.8767 70.6586 12.0569C70.357 12.2348 70.0014 12.2998 69.7794 12.3222Z" fill="url(#paint2_linear_47_430)" stroke="url(#paint3_linear_47_430)" stroke-width="0.0358347" stroke-linejoin="round"/>
<mask id="path-3-outside-1_47_430" maskUnits="userSpaceOnUse" x="21.2175" y="6.74023" width="53" height="12" fill="black">
<rect fill="white" x="21.2175" y="6.74023" width="53" height="12"/>
<path fill-rule="evenodd" clip-rule="evenodd" d="M28.5674 18.3473C28.508 18.3473 28.4548 18.3107 28.4336 18.2552L28.0245 17.1863H24.6967L24.3014 18.2538C24.2805 18.31 24.2269 18.3473 24.1669 18.3473H22.3609C22.3136 18.3473 22.2693 18.324 22.2426 18.285C22.2159 18.246 22.2101 18.1963 22.2272 18.1522L26.2264 7.83178C26.2477 7.77663 26.3008 7.74027 26.3599 7.74023C26.4191 7.7402 26.4722 7.7765 26.4936 7.83162L30.5071 18.152C30.5243 18.1961 30.5185 18.2459 30.4918 18.2849C30.4651 18.324 30.4208 18.3473 30.3735 18.3473H28.5674ZM24.597 17.0429H28.1231L28.5674 18.204H30.3735L26.36 7.88357L22.3609 18.204H24.1669L24.597 17.0429ZM26.36 12.1121L25.1416 15.5952H27.5784L26.36 12.1121ZM26.36 12.5462L25.3436 15.4519H27.3764L26.36 12.5462ZM36.9039 12.4991C36.9039 12.4199 36.9681 12.3557 37.0473 12.3557H40.4014C40.4806 12.3557 40.5448 12.4199 40.5448 12.4991V18.247C40.5448 18.3261 40.4806 18.3903 40.4014 18.3903H38.9394C38.8652 18.3903 38.8033 18.3338 38.7966 18.26L38.7361 17.5945C37.9524 18.2419 37.1181 18.4907 36.0009 18.4907C34.6197 18.4907 33.3808 18.0089 32.4872 17.0986C31.5932 16.1879 31.0557 14.8598 31.0557 13.1871C31.0557 10.1278 33.369 7.88357 36.2159 7.88357C37.6458 7.88357 38.9294 8.45881 39.8585 9.40275C39.9138 9.45885 39.9134 9.54899 39.8577 9.60466L38.6824 10.78C38.6264 10.836 38.5356 10.836 38.4797 10.78C37.9038 10.2042 37.0943 9.84732 36.2159 9.84732C35.325 9.84732 34.5276 10.1577 33.9534 10.7251C33.3799 11.2918 33.0195 12.1243 33.0195 13.1871C33.0195 14.3827 33.3821 15.2119 33.9505 15.7431C34.5207 16.2761 35.3168 16.5269 36.2159 16.5269C37.1577 16.5269 37.9927 16.1318 38.581 15.4832V14.2335H37.0473C36.9681 14.2335 36.9039 14.1693 36.9039 14.0902V12.4991ZM38.7244 15.5379C38.108 16.2402 37.2193 16.6703 36.2159 16.6703C34.3668 16.6703 32.8761 15.6382 32.8761 13.1871C32.8761 10.994 34.3668 9.70398 36.2159 9.70398C37.133 9.70398 37.9785 10.0764 38.5805 10.6781C38.5806 10.6783 38.5808 10.6785 38.581 10.6787L39.7564 9.50334C39.7564 9.50335 39.7563 9.50333 39.7564 9.50334C39.738 9.48465 39.7194 9.46603 39.7007 9.44764C39.6854 9.43253 39.6699 9.41751 39.6544 9.4026C38.7605 8.54519 37.5547 8.02691 36.2159 8.02691C33.4495 8.02691 31.1991 10.2057 31.1991 13.1871C31.1991 16.4696 33.3061 18.3473 36.0009 18.3473C37.1262 18.3473 37.9437 18.0909 38.7203 17.4203C38.7648 17.3819 38.8091 17.3421 38.8534 17.3009L38.9394 18.247H40.4014V12.4991H37.0473V14.0902H38.7244V15.5379ZM49.4237 9.84732C49.4237 9.92648 49.3595 9.99066 49.2804 9.99066H44.4068V12.2124H48.4347C48.5138 12.2124 48.578 12.2766 48.578 12.3557V14.0185C48.578 14.0976 48.5138 14.1618 48.4347 14.1618H44.4068V16.3836H49.2804C49.3595 16.3836 49.4237 16.4477 49.4237 16.5269V18.204C49.4237 18.2831 49.3595 18.3473 49.2804 18.3473H42.5864C42.5073 18.3473 42.4431 18.2831 42.4431 18.204V8.17025C42.4431 8.09109 42.5073 8.02691 42.5864 8.02691H49.2804C49.3595 8.02691 49.4237 8.09109 49.4237 8.17025V9.84732ZM49.2804 16.5269V18.204H42.5864V8.17025H49.2804V9.84732H44.2635V12.3557H48.4347V14.0185H44.2635V16.5269H49.2804ZM56.4027 16.5269V18.204H51.0132V8.17025H52.6903V16.5269H56.4027ZM52.8336 16.3836H56.4027C56.4819 16.3836 56.5461 16.4477 56.5461 16.5269V18.204C56.5461 18.2831 56.4819 18.3473 56.4027 18.3473H51.0132C50.934 18.3473 50.8699 18.2831 50.8699 18.204V8.17025C50.8699 8.09109 50.934 8.02691 51.0132 8.02691H52.6903C52.7694 8.02691 52.8336 8.09109 52.8336 8.17025V16.3836ZM63.2683 18.3473C63.209 18.3473 63.1557 18.3107 63.1345 18.2552L62.7254 17.1863H59.3976L59.0023 18.2538C58.9814 18.31 58.9278 18.3473 58.8678 18.3473H57.0618C57.0145 18.3473 56.9702 18.324 56.9435 18.285C56.9168 18.246 56.911 18.1963 56.9281 18.1522L60.9273 7.83178C60.9486 7.77663 61.0017 7.74027 61.0608 7.74023C61.12 7.7402 61.1731 7.7765 61.1945 7.83162L65.208 18.152C65.2252 18.1961 65.2194 18.2459 65.1927 18.2849C65.166 18.324 65.1217 18.3473 65.0744 18.3473H63.2683ZM59.2979 17.0429H62.824L63.2683 18.204H65.0744L61.0609 7.88357L57.0618 18.204H58.8678L59.2979 17.0429ZM61.0609 12.1121L59.8425 15.5952H62.2793L61.0609 12.1121ZM61.0609 12.5462L60.0445 15.4519H62.0773L61.0609 12.5462ZM73.5506 18.2735C73.5254 18.319 73.4774 18.3473 73.4253 18.3473H71.4615C71.412 18.3473 71.366 18.3218 71.3399 18.2798L68.7732 14.1618H68.0357V18.204C68.0357 18.2831 67.9715 18.3473 67.8924 18.3473H66.2153C66.1361 18.3473 66.072 18.2831 66.072 18.204V12.3557C66.072 12.2766 66.1361 12.2124 66.2153 12.2124H67.5457L66.0943 9.92409C66.0797 9.90113 66.072 9.87451 66.072 9.84732V8.17025C66.072 8.09109 66.1361 8.02691 66.2153 8.02691H69.5551V8.17025H66.2153V9.84732L67.8064 12.3557H66.2153V18.204H67.8924V14.0185H68.8527L71.4615 18.204H73.4253L70.7018 13.8465C70.7488 13.8334 70.7963 13.8192 70.8443 13.804C71.7924 13.504 72.9092 12.7861 72.9092 11.0944C72.9092 8.17025 69.5551 8.17025 69.5551 8.17025C69.5551 8.02691 69.5552 8.02691 69.5553 8.02691L69.5555 8.02691L69.5562 8.02691L69.5585 8.02693L69.5667 8.02702C69.5738 8.02711 69.5839 8.02731 69.5969 8.02769C69.623 8.02844 69.6606 8.02994 69.7081 8.0329C69.8032 8.03882 69.9381 8.0506 70.0998 8.07409C70.4224 8.12096 70.8549 8.21496 71.2894 8.40437C71.724 8.5938 72.1657 8.88096 72.499 9.31679C72.8338 9.75453 73.0526 10.3339 73.0526 11.0944C73.0526 12.0202 72.7299 12.6768 72.2726 13.136C71.8731 13.5371 71.3775 13.7813 70.9227 13.9294L73.5468 18.128C73.5744 18.1722 73.5759 18.2279 73.5506 18.2735ZM69.5551 9.84732H68.2077L69.7701 12.3414C70.2145 12.2984 71.2322 12.0834 71.2322 11.0944C71.2322 9.84732 69.5551 9.84732 69.5551 9.84732ZM69.8436 12.1887C70.0559 12.1607 70.3474 12.0951 70.595 11.9492C70.8712 11.7863 71.0888 11.5276 71.0888 11.0944C71.0888 10.8182 70.9972 10.6184 70.8634 10.4691C70.7269 10.3168 70.5402 10.2106 70.3437 10.1376C70.1478 10.0647 69.9499 10.0277 69.7995 10.0091C69.7247 9.99978 69.6626 9.99518 69.6196 9.99289C69.5981 9.99175 69.5814 9.99119 69.5704 9.99092C69.5649 9.99078 69.5608 9.99071 69.5582 9.99068L69.5555 9.99066L69.5551 9.99066H68.4667L69.8436 12.1887Z"/>
</mask>
<path fill-rule="evenodd" clip-rule="evenodd" d="M28.5674 18.3473C28.508 18.3473 28.4548 18.3107 28.4336 18.2552L28.0245 17.1863H24.6967L24.3014 18.2538C24.2805 18.31 24.2269 18.3473 24.1669 18.3473H22.3609C22.3136 18.3473 22.2693 18.324 22.2426 18.285C22.2159 18.246 22.2101 18.1963 22.2272 18.1522L26.2264 7.83178C26.2477 7.77663 26.3008 7.74027 26.3599 7.74023C26.4191 7.7402 26.4722 7.7765 26.4936 7.83162L30.5071 18.152C30.5243 18.1961 30.5185 18.2459 30.4918 18.2849C30.4651 18.324 30.4208 18.3473 30.3735 18.3473H28.5674ZM24.597 17.0429H28.1231L28.5674 18.204H30.3735L26.36 7.88357L22.3609 18.204H24.1669L24.597 17.0429ZM26.36 12.1121L25.1416 15.5952H27.5784L26.36 12.1121ZM26.36 12.5462L25.3436 15.4519H27.3764L26.36 12.5462ZM36.9039 12.4991C36.9039 12.4199 36.9681 12.3557 37.0473 12.3557H40.4014C40.4806 12.3557 40.5448 12.4199 40.5448 12.4991V18.247C40.5448 18.3261 40.4806 18.3903 40.4014 18.3903H38.9394C38.8652 18.3903 38.8033 18.3338 38.7966 18.26L38.7361 17.5945C37.9524 18.2419 37.1181 18.4907 36.0009 18.4907C34.6197 18.4907 33.3808 18.0089 32.4872 17.0986C31.5932 16.1879 31.0557 14.8598 31.0557 13.1871C31.0557 10.1278 33.369 7.88357 36.2159 7.88357C37.6458 7.88357 38.9294 8.45881 39.8585 9.40275C39.9138 9.45885 39.9134 9.54899 39.8577 9.60466L38.6824 10.78C38.6264 10.836 38.5356 10.836 38.4797 10.78C37.9038 10.2042 37.0943 9.84732 36.2159 9.84732C35.325 9.84732 34.5276 10.1577 33.9534 10.7251C33.3799 11.2918 33.0195 12.1243 33.0195 13.1871C33.0195 14.3827 33.3821 15.2119 33.9505 15.7431C34.5207 16.2761 35.3168 16.5269 36.2159 16.5269C37.1577 16.5269 37.9927 16.1318 38.581 15.4832V14.2335H37.0473C36.9681 14.2335 36.9039 14.1693 36.9039 14.0902V12.4991ZM38.7244 15.5379C38.108 16.2402 37.2193 16.6703 36.2159 16.6703C34.3668 16.6703 32.8761 15.6382 32.8761 13.1871C32.8761 10.994 34.3668 9.70398 36.2159 9.70398C37.133 9.70398 37.9785 10.0764 38.5805 10.6781C38.5806 10.6783 38.5808 10.6785 38.581 10.6787L39.7564 9.50334C39.7564 9.50335 39.7563 9.50333 39.7564 9.50334C39.738 9.48465 39.7194 9.46603 39.7007 9.44764C39.6854 9.43253 39.6699 9.41751 39.6544 9.4026C38.7605 8.54519 37.5547 8.02691 36.2159 8.02691C33.4495 8.02691 31.1991 10.2057 31.1991 13.1871C31.1991 16.4696 33.3061 18.3473 36.0009 18.3473C37.1262 18.3473 37.9437 18.0909 38.7203 17.4203C38.7648 17.3819 38.8091 17.3421 38.8534 17.3009L38.9394 18.247H40.4014V12.4991H37.0473V14.0902H38.7244V15.5379ZM49.4237 9.84732C49.4237 9.92648 49.3595 9.99066 49.2804 9.99066H44.4068V12.2124H48.4347C48.5138 12.2124 48.578 12.2766 48.578 12.3557V14.0185C48.578 14.0976 48.5138 14.1618 48.4347 14.1618H44.4068V16.3836H49.2804C49.3595 16.3836 49.4237 16.4477 49.4237 16.5269V18.204C49.4237 18.2831 49.3595 18.3473 49.2804 18.3473H42.5864C42.5073 18.3473 42.4431 18.2831 42.4431 18.204V8.17025C42.4431 8.09109 42.5073 8.02691 42.5864 8.02691H49.2804C49.3595 8.02691 49.4237 8.09109 49.4237 8.17025V9.84732ZM49.2804 16.5269V18.204H42.5864V8.17025H49.2804V9.84732H44.2635V12.3557H48.4347V14.0185H44.2635V16.5269H49.2804ZM56.4027 16.5269V18.204H51.0132V8.17025H52.6903V16.5269H56.4027ZM52.8336 16.3836H56.4027C56.4819 16.3836 56.5461 16.4477 56.5461 16.5269V18.204C56.5461 18.2831 56.4819 18.3473 56.4027 18.3473H51.0132C50.934 18.3473 50.8699 18.2831 50.8699 18.204V8.17025C50.8699 8.09109 50.934 8.02691 51.0132 8.02691H52.6903C52.7694 8.02691 52.8336 8.09109 52.8336 8.17025V16.3836ZM63.2683 18.3473C63.209 18.3473 63.1557 18.3107 63.1345 18.2552L62.7254 17.1863H59.3976L59.0023 18.2538C58.9814 18.31 58.9278 18.3473 58.8678 18.3473H57.0618C57.0145 18.3473 56.9702 18.324 56.9435 18.285C56.9168 18.246 56.911 18.1963 56.9281 18.1522L60.9273 7.83178C60.9486 7.77663 61.0017 7.74027 61.0608 7.74023C61.12 7.7402 61.1731 7.7765 61.1945 7.83162L65.208 18.152C65.2252 18.1961 65.2194 18.2459 65.1927 18.2849C65.166 18.324 65.1217 18.3473 65.0744 18.3473H63.2683ZM59.2979 17.0429H62.824L63.2683 18.204H65.0744L61.0609 7.88357L57.0618 18.204H58.8678L59.2979 17.0429ZM61.0609 12.1121L59.8425 15.5952H62.2793L61.0609 12.1121ZM61.0609 12.5462L60.0445 15.4519H62.0773L61.0609 12.5462ZM73.5506 18.2735C73.5254 18.319 73.4774 18.3473 73.4253 18.3473H71.4615C71.412 18.3473 71.366 18.3218 71.3399 18.2798L68.7732 14.1618H68.0357V18.204C68.0357 18.2831 67.9715 18.3473 67.8924 18.3473H66.2153C66.1361 18.3473 66.072 18.2831 66.072 18.204V12.3557C66.072 12.2766 66.1361 12.2124 66.2153 12.2124H67.5457L66.0943 9.92409C66.0797 9.90113 66.072 9.87451 66.072 9.84732V8.17025C66.072 8.09109 66.1361 8.02691 66.2153 8.02691H69.5551V8.17025H66.2153V9.84732L67.8064 12.3557H66.2153V18.204H67.8924V14.0185H68.8527L71.4615 18.204H73.4253L70.7018 13.8465C70.7488 13.8334 70.7963 13.8192 70.8443 13.804C71.7924 13.504 72.9092 12.7861 72.9092 11.0944C72.9092 8.17025 69.5551 8.17025 69.5551 8.17025C69.5551 8.02691 69.5552 8.02691 69.5553 8.02691L69.5555 8.02691L69.5562 8.02691L69.5585 8.02693L69.5667 8.02702C69.5738 8.02711 69.5839 8.02731 69.5969 8.02769C69.623 8.02844 69.6606 8.02994 69.7081 8.0329C69.8032 8.03882 69.9381 8.0506 70.0998 8.07409C70.4224 8.12096 70.8549 8.21496 71.2894 8.40437C71.724 8.5938 72.1657 8.88096 72.499 9.31679C72.8338 9.75453 73.0526 10.3339 73.0526 11.0944C73.0526 12.0202 72.7299 12.6768 72.2726 13.136C71.8731 13.5371 71.3775 13.7813 70.9227 13.9294L73.5468 18.128C73.5744 18.1722 73.5759 18.2279 73.5506 18.2735ZM69.5551 9.84732H68.2077L69.7701 12.3414C70.2145 12.2984 71.2322 12.0834 71.2322 11.0944C71.2322 9.84732 69.5551 9.84732 69.5551 9.84732ZM69.8436 12.1887C70.0559 12.1607 70.3474 12.0951 70.595 11.9492C70.8712 11.7863 71.0888 11.5276 71.0888 11.0944C71.0888 10.8182 70.9972 10.6184 70.8634 10.4691C70.7269 10.3168 70.5402 10.2106 70.3437 10.1376C70.1478 10.0647 69.9499 10.0277 69.7995 10.0091C69.7247 9.99978 69.6626 9.99518 69.6196 9.99289C69.5981 9.99175 69.5814 9.99119 69.5704 9.99092C69.5649 9.99078 69.5608 9.99071 69.5582 9.99068L69.5555 9.99066L69.5551 9.99066H68.4667L69.8436 12.1887Z" fill="url(#paint4_linear_47_430)"/>
<path d="M28.4336 18.2552L28.467 18.2424H28.467L28.4336 18.2552ZM28.0245 17.1863L28.0579 17.1735C28.0526 17.1596 28.0393 17.1504 28.0245 17.1504V17.1863ZM24.6967 17.1863V17.1504C24.6817 17.1504 24.6683 17.1598 24.6631 17.1738L24.6967 17.1863ZM24.3014 18.2538L24.2678 18.2413L24.3014 18.2538ZM22.2272 18.1522L22.2606 18.1651H22.2606L22.2272 18.1522ZM26.2264 7.83178L26.193 7.81883V7.81883L26.2264 7.83178ZM26.3599 7.74023L26.36 7.77607L26.3599 7.74023ZM26.4936 7.83162L26.4602 7.84461V7.84461L26.4936 7.83162ZM30.5071 18.152L30.5405 18.139L30.5071 18.152ZM30.4918 18.2849L30.5214 18.3051V18.3051L30.4918 18.2849ZM24.597 17.0429V17.0071C24.582 17.0071 24.5686 17.0164 24.5634 17.0305L24.597 17.0429ZM28.1231 17.0429L28.1566 17.0301C28.1513 17.0163 28.1379 17.0071 28.1231 17.0071V17.0429ZM28.5674 18.204L28.534 18.2168C28.5393 18.2307 28.5526 18.2398 28.5674 18.2398V18.204ZM30.3735 18.204V18.2398C30.3853 18.2398 30.3964 18.234 30.4031 18.2242C30.4098 18.2144 30.4112 18.202 30.4069 18.191L30.3735 18.204ZM26.36 7.88357L26.3934 7.87059C26.3881 7.8568 26.3748 7.84773 26.36 7.84774C26.3452 7.84775 26.332 7.85684 26.3266 7.87063L26.36 7.88357ZM22.3609 18.204L22.3275 18.191C22.3232 18.2021 22.3246 18.2145 22.3313 18.2242C22.338 18.234 22.349 18.2398 22.3609 18.2398V18.204ZM24.1669 18.204V18.2398C24.1819 18.2398 24.1953 18.2305 24.2005 18.2164L24.1669 18.204ZM26.36 12.1121L26.3939 12.1002C26.3888 12.0859 26.3753 12.0762 26.36 12.0762C26.3448 12.0762 26.3312 12.0859 26.3262 12.1002L26.36 12.1121ZM25.1416 15.5952L25.1078 15.5834C25.104 15.5943 25.1057 15.6065 25.1124 15.6159C25.1191 15.6254 25.13 15.631 25.1416 15.631V15.5952ZM27.5784 15.5952V15.631C27.59 15.631 27.6009 15.6254 27.6076 15.6159C27.6144 15.6065 27.6161 15.5943 27.6122 15.5834L27.5784 15.5952ZM25.3436 15.4519L25.3098 15.44C25.306 15.451 25.3077 15.4631 25.3144 15.4726C25.3211 15.4821 25.332 15.4877 25.3436 15.4877V15.4519ZM26.36 12.5462L26.3939 12.5344C26.3888 12.52 26.3753 12.5104 26.36 12.5104C26.3448 12.5104 26.3312 12.52 26.3262 12.5344L26.36 12.5462ZM27.3764 15.4519V15.4877C27.388 15.4877 27.3989 15.4821 27.4056 15.4726C27.4124 15.4631 27.4141 15.451 27.4102 15.44L27.3764 15.4519ZM38.7966 18.26L38.8323 18.2567L38.7966 18.26ZM38.7361 17.5945L38.7718 17.5913C38.7706 17.578 38.7622 17.5665 38.7499 17.5614C38.7376 17.5563 38.7235 17.5584 38.7133 17.5669L38.7361 17.5945ZM32.4872 17.0986L32.5127 17.0734L32.4872 17.0986ZM39.8585 9.40275L39.833 9.42789L39.8585 9.40275ZM39.8577 9.60466L39.8324 9.57932L39.8577 9.60466ZM38.6824 10.78L38.7077 10.8054V10.8054L38.6824 10.78ZM38.4797 10.78L38.4543 10.8054V10.8054L38.4797 10.78ZM33.9534 10.7251L33.9786 10.7506L33.9534 10.7251ZM33.9505 15.7431L33.975 15.7169L33.9505 15.7431ZM38.581 15.4832L38.6076 15.5073C38.6135 15.5007 38.6168 15.4921 38.6168 15.4832H38.581ZM38.581 14.2335H38.6168C38.6168 14.2137 38.6008 14.1977 38.581 14.1977V14.2335ZM38.7244 15.5379L38.7513 15.5615C38.757 15.555 38.7602 15.5466 38.7602 15.5379H38.7244ZM38.5805 10.6781L38.5551 10.7035L38.5551 10.7035L38.5805 10.6781ZM38.581 10.6787L38.5557 10.704C38.5697 10.718 38.5924 10.718 38.6064 10.704L38.581 10.6787ZM39.7007 9.44764L39.6756 9.47318V9.47318L39.7007 9.44764ZM39.6544 9.4026L39.6296 9.42846V9.42846L39.6544 9.4026ZM38.7203 17.4203L38.6969 17.3931L38.7203 17.4203ZM38.8534 17.3009L38.889 17.2977C38.8878 17.2841 38.8789 17.2724 38.8662 17.2675C38.8534 17.2626 38.839 17.2654 38.829 17.2747L38.8534 17.3009ZM38.9394 18.247L38.9037 18.2502C38.9054 18.2687 38.9208 18.2828 38.9394 18.2828V18.247ZM40.4014 18.247V18.2828C40.4212 18.2828 40.4373 18.2668 40.4373 18.247H40.4014ZM40.4014 12.4991H40.4373C40.4373 12.4793 40.4212 12.4633 40.4014 12.4633V12.4991ZM37.0473 12.4991V12.4633C37.0275 12.4633 37.0115 12.4793 37.0115 12.4991H37.0473ZM37.0473 14.0902H37.0115C37.0115 14.1099 37.0275 14.126 37.0473 14.126V14.0902ZM38.7244 14.0902H38.7602C38.7602 14.0704 38.7441 14.0543 38.7244 14.0543V14.0902ZM44.4068 9.99066V9.95482C44.3871 9.95482 44.371 9.97087 44.371 9.99066H44.4068ZM44.4068 12.2124H44.371C44.371 12.2322 44.3871 12.2482 44.4068 12.2482V12.2124ZM44.4068 14.1618V14.126C44.3871 14.126 44.371 14.142 44.371 14.1618H44.4068ZM44.4068 16.3836H44.371C44.371 16.4034 44.3871 16.4194 44.4068 16.4194V16.3836ZM49.2804 16.5269H49.3162C49.3162 16.5071 49.3002 16.4911 49.2804 16.4911V16.5269ZM49.2804 18.204V18.2398C49.3002 18.2398 49.3162 18.2238 49.3162 18.204H49.2804ZM42.5864 18.204H42.5506C42.5506 18.2238 42.5667 18.2398 42.5864 18.2398V18.204ZM42.5864 8.17025V8.13442C42.5667 8.13442 42.5506 8.15046 42.5506 8.17025H42.5864ZM49.2804 8.17025H49.3162C49.3162 8.15046 49.3002 8.13442 49.2804 8.13442V8.17025ZM49.2804 9.84732V9.88315C49.3002 9.88315 49.3162 9.86711 49.3162 9.84732H49.2804ZM44.2635 9.84732V9.81148C44.2437 9.81148 44.2277 9.82753 44.2277 9.84732H44.2635ZM44.2635 12.3557H44.2277C44.2277 12.3755 44.2437 12.3916 44.2635 12.3916V12.3557ZM48.4347 12.3557H48.4705C48.4705 12.336 48.4545 12.3199 48.4347 12.3199V12.3557ZM48.4347 14.0185V14.0543C48.4545 14.0543 48.4705 14.0383 48.4705 14.0185H48.4347ZM44.2635 14.0185V13.9826C44.2437 13.9826 44.2277 13.9987 44.2277 14.0185H44.2635ZM44.2635 16.5269H44.2277C44.2277 16.5467 44.2437 16.5627 44.2635 16.5627V16.5269ZM56.4027 16.5269H56.4386C56.4386 16.5071 56.4225 16.4911 56.4027 16.4911V16.5269ZM56.4027 18.204V18.2398C56.4225 18.2398 56.4386 18.2238 56.4386 18.204H56.4027ZM51.0132 18.204H50.9774C50.9774 18.2238 50.9934 18.2398 51.0132 18.2398V18.204ZM51.0132 8.17025V8.13442C50.9934 8.13442 50.9774 8.15046 50.9774 8.17025H51.0132ZM52.6903 8.17025H52.7261C52.7261 8.15046 52.7101 8.13442 52.6903 8.13442V8.17025ZM52.6903 16.5269H52.6544C52.6544 16.5467 52.6705 16.5627 52.6903 16.5627V16.5269ZM52.8336 16.3836H52.7978C52.7978 16.4034 52.8138 16.4194 52.8336 16.4194V16.3836ZM63.1345 18.2552L63.101 18.268L63.101 18.268L63.1345 18.2552ZM62.7254 17.1863L62.7588 17.1735C62.7535 17.1596 62.7402 17.1504 62.7254 17.1504V17.1863ZM59.3976 17.1863V17.1504C59.3826 17.1504 59.3692 17.1598 59.364 17.1738L59.3976 17.1863ZM59.0023 18.2538L58.9687 18.2413L59.0023 18.2538ZM56.9281 18.1522L56.9615 18.1651V18.1651L56.9281 18.1522ZM60.9273 7.83178L60.9607 7.84473L60.9607 7.84473L60.9273 7.83178ZM61.0608 7.74023L61.0609 7.77607L61.0608 7.74023ZM61.1945 7.83162L61.2279 7.81863L61.2279 7.81863L61.1945 7.83162ZM65.208 18.152L65.1746 18.165V18.165L65.208 18.152ZM65.1927 18.2849L65.2223 18.3051L65.2223 18.3051L65.1927 18.2849ZM59.2979 17.0429V17.0071C59.2829 17.0071 59.2695 17.0164 59.2643 17.0305L59.2979 17.0429ZM62.824 17.0429L62.8575 17.0301C62.8522 17.0163 62.8388 17.0071 62.824 17.0071V17.0429ZM63.2683 18.204L63.2349 18.2168C63.2402 18.2307 63.2535 18.2398 63.2683 18.2398V18.204ZM65.0744 18.204V18.2398C65.0862 18.2398 65.0973 18.234 65.104 18.2242C65.1107 18.2144 65.1121 18.202 65.1078 18.191L65.0744 18.204ZM61.0609 7.88357L61.0943 7.87059C61.089 7.8568 61.0757 7.84773 61.0609 7.84774C61.0461 7.84775 61.0329 7.85684 61.0275 7.87063L61.0609 7.88357ZM57.0618 18.204L57.0284 18.191C57.0241 18.2021 57.0255 18.2145 57.0322 18.2242C57.0389 18.234 57.0499 18.2398 57.0618 18.2398V18.204ZM58.8678 18.204V18.2398C58.8828 18.2398 58.8962 18.2305 58.9014 18.2164L58.8678 18.204ZM61.0609 12.1121L61.0948 12.1002C61.0897 12.0859 61.0762 12.0762 61.0609 12.0762C61.0457 12.0762 61.0321 12.0859 61.0271 12.1002L61.0609 12.1121ZM59.8425 15.5952L59.8087 15.5834C59.8049 15.5943 59.8066 15.6065 59.8133 15.6159C59.82 15.6254 59.8309 15.631 59.8425 15.631V15.5952ZM62.2793 15.5952V15.631C62.2909 15.631 62.3018 15.6254 62.3085 15.6159C62.3153 15.6065 62.317 15.5943 62.3131 15.5834L62.2793 15.5952ZM60.0445 15.4519L60.0107 15.44C60.0069 15.451 60.0086 15.4631 60.0153 15.4726C60.022 15.4821 60.0329 15.4877 60.0445 15.4877V15.4519ZM61.0609 12.5462L61.0948 12.5344C61.0897 12.52 61.0762 12.5104 61.0609 12.5104C61.0457 12.5104 61.0321 12.52 61.0271 12.5344L61.0609 12.5462ZM62.0773 15.4519V15.4877C62.0889 15.4877 62.0998 15.4821 62.1065 15.4726C62.1133 15.4631 62.115 15.451 62.1111 15.44L62.0773 15.4519ZM73.5506 18.2735L73.582 18.2908V18.2908L73.5506 18.2735ZM71.3399 18.2798L71.3095 18.2988V18.2988L71.3399 18.2798ZM68.7732 14.1618L68.8036 14.1429C68.7971 14.1324 68.7856 14.126 68.7732 14.126V14.1618ZM68.0357 14.1618V14.126C68.0159 14.126 67.9999 14.142 67.9999 14.1618H68.0357ZM67.5457 12.2124V12.2482C67.5588 12.2482 67.5708 12.2411 67.5771 12.2297C67.5834 12.2182 67.583 12.2043 67.576 12.1932L67.5457 12.2124ZM66.0943 9.92409L66.064 9.94329V9.94329L66.0943 9.92409ZM69.5551 8.02691H69.5909C69.5909 8.00712 69.5749 7.99108 69.5551 7.99108V8.02691ZM66.2153 8.17025V8.13442C66.1955 8.13442 66.1795 8.15046 66.1795 8.17025H66.2153ZM66.2153 9.84732H66.1795C66.1795 9.85411 66.1814 9.86077 66.185 9.86651L66.2153 9.84732ZM67.8064 12.3557V12.3916C67.8194 12.3916 67.8315 12.3845 67.8378 12.373C67.8441 12.3616 67.8436 12.3476 67.8366 12.3366L67.8064 12.3557ZM66.2153 12.3557V12.3199C66.1955 12.3199 66.1795 12.336 66.1795 12.3557H66.2153ZM66.2153 18.204H66.1795C66.1795 18.2238 66.1955 18.2398 66.2153 18.2398V18.204ZM67.8924 18.204V18.2398C67.9122 18.2398 67.9282 18.2238 67.9282 18.204H67.8924ZM67.8924 14.0185V13.9826C67.8726 13.9826 67.8565 13.9987 67.8565 14.0185H67.8924ZM68.8527 14.0185L68.8832 13.9995C68.8766 13.989 68.8651 13.9826 68.8527 13.9826V14.0185ZM71.4615 18.204L71.4311 18.2229C71.4376 18.2334 71.4491 18.2398 71.4615 18.2398V18.204ZM73.4253 18.204V18.2398C73.4383 18.2398 73.4503 18.2327 73.4566 18.2213C73.4629 18.21 73.4625 18.196 73.4556 18.185L73.4253 18.204ZM70.7018 13.8465L70.6922 13.812C70.6813 13.815 70.6725 13.823 70.6684 13.8335C70.6643 13.844 70.6654 13.8559 70.6714 13.8655L70.7018 13.8465ZM70.8443 13.804L70.8335 13.7699L70.8443 13.804ZM69.5553 8.02691L69.5553 7.99108L69.5553 7.99108L69.5553 8.02691ZM69.5555 8.02691L69.5556 7.99108L69.5555 7.99108L69.5555 8.02691ZM69.5562 8.02691L69.5564 7.99108L69.5563 7.99108L69.5562 8.02691ZM69.5585 8.02693L69.5589 7.99109L69.5587 7.99109L69.5585 8.02693ZM69.5667 8.02702L69.5672 7.99118L69.5671 7.99118L69.5667 8.02702ZM69.5969 8.02769L69.5959 8.06351L69.5969 8.02769ZM69.7081 8.0329L69.7059 8.06867L69.7081 8.0329ZM70.0998 8.07409L70.0946 8.10955L70.0998 8.07409ZM71.2894 8.40437L71.2751 8.43722L71.2894 8.40437ZM72.499 9.31679L72.4706 9.33856V9.33856L72.499 9.31679ZM72.2726 13.136L72.2472 13.1107V13.1107L72.2726 13.136ZM70.9227 13.9294L70.9116 13.8954C70.9011 13.8988 70.8928 13.9068 70.889 13.9172C70.8852 13.9275 70.8865 13.9391 70.8923 13.9484L70.9227 13.9294ZM73.5468 18.128L73.5772 18.109V18.109L73.5468 18.128ZM69.5551 9.84732V9.88315V9.84732ZM68.2077 9.84732V9.81148C68.1947 9.81148 68.1827 9.81856 68.1764 9.82996C68.1701 9.84136 68.1704 9.8553 68.1773 9.86634L68.2077 9.84732ZM69.7701 12.3414L69.7397 12.3604C69.747 12.3719 69.76 12.3784 69.7736 12.3771L69.7701 12.3414ZM70.595 11.9492L70.5768 11.9183L70.595 11.9492ZM69.8436 12.1887L69.8132 12.2078C69.8207 12.2197 69.8344 12.2261 69.8483 12.2243L69.8436 12.1887ZM70.8634 10.4691L70.8901 10.4452L70.8634 10.4691ZM70.3437 10.1376L70.3562 10.104L70.3437 10.1376ZM69.7995 10.0091L69.7951 10.0446L69.7995 10.0091ZM69.6196 9.99289L69.6177 10.0287L69.6196 9.99289ZM69.5704 9.99092L69.5695 10.0267L69.5704 9.99092ZM69.5582 9.99068L69.5586 9.95485L69.5585 9.95485L69.5582 9.99068ZM69.5555 9.99066L69.5558 9.95483L69.5557 9.95482L69.5555 9.99066ZM69.5551 9.99066L69.5553 9.95482H69.5551V9.99066ZM68.4667 9.99066V9.95482C68.4536 9.95482 68.4416 9.9619 68.4353 9.9733C68.429 9.9847 68.4294 9.99863 68.4363 10.0097L68.4667 9.99066ZM28.4001 18.268C28.4266 18.3374 28.4932 18.3832 28.5674 18.3832V18.3115C28.5229 18.3115 28.483 18.284 28.467 18.2424L28.4001 18.268ZM27.991 17.1991L28.4001 18.268L28.467 18.2424L28.0579 17.1735L27.991 17.1991ZM24.6967 17.2221H28.0245V17.1504H24.6967V17.2221ZM24.335 18.2662L24.7303 17.1987L24.6631 17.1738L24.2678 18.2413L24.335 18.2662ZM24.1669 18.3832C24.2419 18.3832 24.3089 18.3365 24.335 18.2662L24.2678 18.2413C24.2521 18.2835 24.2119 18.3115 24.1669 18.3115V18.3832ZM22.3609 18.3832H24.1669V18.3115H22.3609V18.3832ZM22.213 18.3052C22.2465 18.354 22.3018 18.3832 22.3609 18.3832V18.3115C22.3254 18.3115 22.2922 18.294 22.2722 18.2647L22.213 18.3052ZM22.1938 18.1392C22.1724 18.1944 22.1796 18.2565 22.213 18.3052L22.2722 18.2647C22.2521 18.2355 22.2478 18.1982 22.2606 18.1651L22.1938 18.1392ZM26.193 7.81883L22.1938 18.1392L22.2606 18.1651L26.2598 7.84473L26.193 7.81883ZM26.3599 7.7044C26.286 7.70444 26.2197 7.7499 26.193 7.81883L26.2598 7.84473C26.2758 7.80337 26.3156 7.7761 26.36 7.77607L26.3599 7.7044ZM26.527 7.81863C26.5002 7.74973 26.4339 7.70436 26.3599 7.7044L26.36 7.77607C26.4043 7.77604 26.4441 7.80327 26.4602 7.84461L26.527 7.81863ZM30.5405 18.139L26.527 7.81863L26.4602 7.84461L30.4737 18.165L30.5405 18.139ZM30.5214 18.3051C30.5548 18.2563 30.5619 18.1942 30.5405 18.139L30.4737 18.165C30.4866 18.1981 30.4823 18.2354 30.4622 18.2647L30.5214 18.3051ZM30.3735 18.3832C30.4327 18.3832 30.488 18.354 30.5214 18.3051L30.4622 18.2647C30.4422 18.294 30.409 18.3115 30.3735 18.3115V18.3832ZM28.5674 18.3832H30.3735V18.3115H28.5674V18.3832ZM24.597 17.0788H28.1231V17.0071H24.597V17.0788ZM28.0896 17.0557L28.534 18.2168L28.6009 18.1912L28.1566 17.0301L28.0896 17.0557ZM24.2005 18.2164L24.6306 17.0554L24.5634 17.0305L24.1333 18.1915L24.2005 18.2164ZM25.3775 15.4637L26.3939 12.558L26.3262 12.5344L25.3098 15.44L25.3775 15.4637ZM27.3764 15.416H25.3436V15.4877H27.3764V15.416ZM26.3262 12.558L27.3426 15.4637L27.4102 15.44L26.3939 12.5344L26.3262 12.558ZM37.0473 12.3199C36.9483 12.3199 36.8681 12.4001 36.8681 12.4991H36.9398C36.9398 12.4397 36.9879 12.3916 37.0473 12.3916V12.3199ZM40.4014 12.3199H37.0473V12.3916H40.4014V12.3199ZM40.5806 12.4991C40.5806 12.4001 40.5004 12.3199 40.4014 12.3199V12.3916C40.4608 12.3916 40.5089 12.4397 40.5089 12.4991H40.5806ZM40.5806 18.247V12.4991H40.5089V18.247H40.5806ZM40.4014 18.4262C40.5004 18.4262 40.5806 18.3459 40.5806 18.247H40.5089C40.5089 18.3064 40.4608 18.3545 40.4014 18.3545V18.4262ZM38.9394 18.4262H40.4014V18.3545H38.9394V18.4262ZM38.7609 18.2632C38.7693 18.3555 38.8467 18.4262 38.9394 18.4262V18.3545C38.8838 18.3545 38.8373 18.3121 38.8323 18.2567L38.7609 18.2632ZM38.7004 17.5978L38.7609 18.2632L38.8323 18.2567L38.7718 17.5913L38.7004 17.5978ZM36.0009 18.5265C37.1246 18.5265 37.9675 18.2759 38.7589 17.6221L38.7133 17.5669C37.9373 18.2079 37.1117 18.4548 36.0009 18.4548V18.5265ZM32.4616 17.1237C33.3627 18.0416 34.6112 18.5265 36.0009 18.5265V18.4548C34.6281 18.4548 33.3989 17.9761 32.5127 17.0734L32.4616 17.1237ZM31.0199 13.1871C31.0199 14.8677 31.5601 16.2053 32.4616 17.1237L32.5127 17.0734C31.6264 16.1706 31.0916 14.8519 31.0916 13.1871H31.0199ZM36.2159 7.84774C33.3489 7.84774 31.0199 10.1084 31.0199 13.1871H31.0916C31.0916 10.1473 33.3891 7.91941 36.2159 7.91941V7.84774ZM39.8841 9.37761C38.9483 8.42702 37.6557 7.84774 36.2159 7.84774V7.91941C37.6359 7.91941 38.9104 8.49059 39.833 9.42789L39.8841 9.37761ZM39.8831 9.63C39.9527 9.56042 39.9531 9.44774 39.8841 9.37761L39.833 9.42789C39.8744 9.46996 39.8742 9.53757 39.8324 9.57932L39.8831 9.63ZM38.7077 10.8054L39.8831 9.63L39.8324 9.57932L38.657 10.7547L38.7077 10.8054ZM38.4543 10.8054C38.5243 10.8753 38.6377 10.8753 38.7077 10.8054L38.657 10.7547C38.615 10.7967 38.547 10.7967 38.505 10.7547L38.4543 10.8054ZM36.2159 9.88315C37.0846 9.88315 37.885 10.2361 38.4543 10.8054L38.505 10.7547C37.9226 10.1723 37.1041 9.81148 36.2159 9.81148V9.88315ZM33.9786 10.7506C34.5454 10.1905 35.3334 9.88315 36.2159 9.88315V9.81148C35.3166 9.81148 34.5098 10.1249 33.9282 10.6996L33.9786 10.7506ZM33.0553 13.1871C33.0553 12.1328 33.4126 11.3098 33.9786 10.7506L33.9282 10.6996C33.3471 11.2738 32.9836 12.1159 32.9836 13.1871H33.0553ZM33.975 15.7169C33.4155 15.194 33.0553 14.3753 33.0553 13.1871H32.9836C32.9836 14.3902 33.3488 15.2298 33.926 15.7693L33.975 15.7169ZM36.2159 16.4911C35.3232 16.4911 34.5368 16.2421 33.975 15.7169L33.926 15.7693C34.5047 16.3102 35.3104 16.5627 36.2159 16.5627V16.4911ZM38.5545 15.4592C37.9728 16.1005 37.1473 16.4911 36.2159 16.4911V16.5627C37.1681 16.5627 38.0127 16.1632 38.6076 15.5073L38.5545 15.4592ZM38.5452 14.2335V15.4832H38.6168V14.2335H38.5452ZM37.0473 14.2693H38.581V14.1977H37.0473V14.2693ZM36.8681 14.0902C36.8681 14.1891 36.9483 14.2693 37.0473 14.2693V14.1977C36.9879 14.1977 36.9398 14.1495 36.9398 14.0902H36.8681ZM36.8681 12.4991V14.0902H36.9398V12.4991H36.8681ZM38.6974 15.5142C38.0877 16.2091 37.2087 16.6344 36.2159 16.6344V16.7061C37.2299 16.7061 38.1283 16.2714 38.7513 15.5615L38.6974 15.5142ZM36.2159 16.6344C35.2977 16.6344 34.4725 16.3782 33.8771 15.8217C33.2821 15.2655 32.912 14.4052 32.912 13.1871H32.8403C32.8403 14.4201 33.2155 15.3013 33.8282 15.874C34.4404 16.4463 35.285 16.7061 36.2159 16.7061V16.6344ZM32.912 13.1871C32.912 12.099 33.2816 11.2378 33.8778 10.6486C34.4742 10.0593 35.2998 9.73981 36.2159 9.73981V9.66814C35.283 9.66814 34.4387 9.99369 33.8274 10.5976C33.216 11.2018 32.8403 12.0821 32.8403 13.1871H32.912ZM36.2159 9.73981C37.1233 9.73981 37.9597 10.1083 38.5551 10.7035L38.6058 10.6528C37.9972 10.0445 37.1427 9.66814 36.2159 9.66814V9.73981ZM38.5551 10.7035C38.5552 10.7036 38.5553 10.7037 38.5554 10.7038C38.5555 10.7038 38.5556 10.7039 38.5557 10.704L38.6063 10.6533C38.6062 10.6532 38.6062 10.6531 38.6061 10.6531C38.606 10.653 38.6059 10.6529 38.6058 10.6528L38.5551 10.7035ZM39.7823 9.47863C39.7823 9.47863 39.7823 9.47863 39.7823 9.47863C39.7823 9.47863 39.7823 9.47863 39.7823 9.47863C39.7823 9.47863 39.7823 9.47863 39.7823 9.47863C39.7823 9.47863 39.7823 9.47863 39.7823 9.47862C39.7823 9.47862 39.7823 9.47863 39.7823 9.47863C39.7316 9.47739 39.7304 9.52805 39.7304 9.52805C39.7304 9.52805 39.7304 9.52805 39.7304 9.52805C39.7304 9.52805 39.7304 9.52805 39.7304 9.52805C39.7304 9.52805 39.7304 9.52805 39.7304 9.52805C39.7304 9.52805 39.7304 9.52805 39.7304 9.52805C39.7304 9.52805 39.7304 9.52805 39.7304 9.52805C39.7304 9.52805 39.7304 9.52805 39.7304 9.52805C39.7304 9.52805 39.7304 9.52805 39.7304 9.52805V9.52805C39.7304 9.52806 39.7304 9.52806 39.7304 9.52806C39.7304 9.52806 39.7304 9.52805 39.7304 9.52806C39.7304 9.52806 39.7304 9.52806 39.7304 9.52806V9.52806C39.7304 9.52806 39.7304 9.52806 39.7304 9.52806C39.7304 9.52806 39.7304 9.52806 39.7304 9.52806C39.7304 9.52806 39.7304 9.52806 39.7304 9.52806C39.7304 9.52806 39.7304 9.52806 39.7304 9.52806C39.7304 9.52806 39.7304 9.52806 39.7304 9.52806C39.7304 9.52806 39.7304 9.52806 39.7304 9.52806C39.7304 9.52806 39.7304 9.52806 39.7304 9.52806C39.7304 9.52806 39.7304 9.52806 39.7304 9.52806C39.7304 9.52806 39.7316 9.4774 39.7823 9.47863C39.7823 9.47863 39.7823 9.47863 39.7823 9.47863C39.7823 9.47863 39.7823 9.47863 39.7823 9.47863C39.7823 9.47863 39.7823 9.47863 39.7823 9.47863C39.7823 9.47863 39.7823 9.47863 39.7823 9.47863C39.7823 9.47863 39.7823 9.47863 39.7823 9.47863C39.7823 9.47863 39.7823 9.47863 39.7823 9.47863L39.7304 9.52806C39.7304 9.52806 39.7304 9.52805 39.7304 9.52806C39.7304 9.52806 39.7304 9.52806 39.7304 9.52806C39.7304 9.52806 39.7304 9.52806 39.7304 9.52806C39.7304 9.52806 39.7304 9.52806 39.7304 9.52806C39.7304 9.52806 39.7304 9.52806 39.7304 9.52806C39.7811 9.52929 39.7823 9.47863 39.7823 9.47863C39.7823 9.47863 39.7823 9.47863 39.7823 9.47863C39.7823 9.47863 39.7823 9.47863 39.7823 9.47863C39.7823 9.47863 39.7823 9.47863 39.7823 9.47863C39.7823 9.47863 39.7823 9.47863 39.7823 9.47863C39.7823 9.47863 39.7823 9.47863 39.7823 9.47863C39.7823 9.47863 39.7823 9.47863 39.7823 9.47863C39.7823 9.47863 39.7823 9.47863 39.7823 9.47863C39.7823 9.47863 39.7823 9.47863 39.7823 9.47863C39.7823 9.47863 39.7823 9.47863 39.7823 9.47863C39.7823 9.47863 39.7823 9.47863 39.7823 9.47863V9.47863C39.7823 9.47863 39.7823 9.47863 39.7823 9.47863C39.7823 9.47863 39.7823 9.47863 39.7823 9.47863C39.7823 9.47863 39.7823 9.47863 39.7823 9.47863C39.7823 9.47862 39.7823 9.47863 39.7823 9.47863C39.7823 9.47862 39.7823 9.47863 39.7823 9.47862C39.7823 9.47862 39.7823 9.47862 39.7823 9.47862C39.7823 9.47863 39.7823 9.47863 39.7823 9.47862C39.7823 9.47862 39.7823 9.47863 39.7823 9.47863C39.7823 9.47862 39.7811 9.52929 39.7304 9.52805C39.7304 9.52805 39.7304 9.52805 39.7304 9.52805C39.7304 9.52805 39.7304 9.52805 39.7304 9.52805C39.7304 9.52805 39.7304 9.52805 39.7304 9.52805C39.7304 9.52805 39.7304 9.52805 39.7304 9.52805C39.7304 9.52805 39.7304 9.52805 39.7304 9.52806L39.7823 9.47863ZM39.7819 9.4782C39.7634 9.45942 39.7447 9.44066 39.7259 9.4221L39.6756 9.47318C39.6941 9.49141 39.7125 9.50988 39.7308 9.52848L39.7819 9.4782ZM39.7259 9.4221C39.7104 9.40688 39.6948 9.39176 39.6792 9.37674L39.6296 9.42846C39.645 9.44327 39.6603 9.45817 39.6756 9.47318L39.7259 9.4221ZM39.6792 9.37674C38.7789 8.5131 37.5642 7.99108 36.2159 7.99108V8.06275C37.5452 8.06275 38.7422 8.57727 39.6296 9.42846L39.6792 9.37674ZM36.2159 7.99108C33.4294 7.99108 31.1632 10.1862 31.1632 13.1871H31.2349C31.2349 10.2251 33.4696 8.06275 36.2159 8.06275V7.99108ZM31.1632 13.1871C31.1632 14.8362 31.6927 16.1358 32.5639 17.0232C33.435 17.9106 34.6451 18.3832 36.0009 18.3832V18.3115C34.662 18.3115 33.4711 17.8451 32.615 16.973C31.759 16.101 31.2349 14.8205 31.2349 13.1871H31.1632ZM36.0009 18.3832C37.133 18.3832 37.9594 18.1247 38.7437 17.4474L38.6969 17.3931C37.928 18.0571 37.1193 18.3115 36.0009 18.3115V18.3832ZM38.7437 17.4474C38.7885 17.4087 38.8332 17.3686 38.8778 17.3272L38.829 17.2747C38.785 17.3156 38.741 17.355 38.6969 17.3931L38.7437 17.4474ZM49.2804 10.0265C49.3793 10.0265 49.4595 9.94627 49.4595 9.84732H49.3879C49.3879 9.90669 49.3397 9.95482 49.2804 9.95482V10.0265ZM44.4068 10.0265H49.2804V9.95482H44.4068V10.0265ZM44.4427 12.2124V9.99066H44.371V12.2124H44.4427ZM48.4347 12.1766H44.4068V12.2482H48.4347V12.1766ZM48.6138 12.3557C48.6138 12.2568 48.5336 12.1766 48.4347 12.1766V12.2482C48.494 12.2482 48.5422 12.2964 48.5422 12.3557H48.6138ZM48.6138 14.0185V12.3557H48.5422V14.0185H48.6138ZM48.4347 14.1977C48.5336 14.1977 48.6138 14.1174 48.6138 14.0185H48.5422C48.5422 14.0779 48.494 14.126 48.4347 14.126V14.1977ZM44.4068 14.1977H48.4347V14.126H44.4068V14.1977ZM44.4427 16.3836V14.1618H44.371V16.3836H44.4427ZM49.2804 16.3477H44.4068V16.4194H49.2804V16.3477ZM49.4595 16.5269C49.4595 16.428 49.3793 16.3477 49.2804 16.3477V16.4194C49.3397 16.4194 49.3879 16.4675 49.3879 16.5269H49.4595ZM49.4595 18.204V16.5269H49.3879V18.204H49.4595ZM49.2804 18.3832C49.3793 18.3832 49.4595 18.3029 49.4595 18.204H49.3879C49.3879 18.2634 49.3397 18.3115 49.2804 18.3115V18.3832ZM42.5864 18.3832H49.2804V18.3115H42.5864V18.3832ZM42.4073 18.204C42.4073 18.3029 42.4875 18.3832 42.5864 18.3832V18.3115C42.5271 18.3115 42.4789 18.2634 42.4789 18.204H42.4073ZM42.4073 8.17025V18.204H42.4789V8.17025H42.4073ZM42.5864 7.99108C42.4875 7.99108 42.4073 8.0713 42.4073 8.17025H42.4789C42.4789 8.11088 42.5271 8.06275 42.5864 8.06275V7.99108ZM49.2804 7.99108H42.5864V8.06275H49.2804V7.99108ZM49.4595 8.17025C49.4595 8.0713 49.3793 7.99108 49.2804 7.99108V8.06275C49.3397 8.06275 49.3879 8.11088 49.3879 8.17025H49.4595ZM49.4595 9.84732V8.17025H49.3879V9.84732H49.4595ZM56.4027 16.3477H52.8336V16.4194H56.4027V16.3477ZM56.5819 16.5269C56.5819 16.428 56.5017 16.3477 56.4027 16.3477V16.4194C56.4621 16.4194 56.5103 16.4675 56.5103 16.5269H56.5819ZM56.5819 18.204V16.5269H56.5103V18.204H56.5819ZM56.4027 18.3832C56.5017 18.3832 56.5819 18.3029 56.5819 18.204H56.5103C56.5103 18.2634 56.4621 18.3115 56.4027 18.3115V18.3832ZM51.0132 18.3832H56.4027V18.3115H51.0132V18.3832ZM50.834 18.204C50.834 18.3029 50.9142 18.3832 51.0132 18.3832V18.3115C50.9538 18.3115 50.9057 18.2634 50.9057 18.204H50.834ZM50.834 8.17025V18.204H50.9057V8.17025H50.834ZM51.0132 7.99108C50.9142 7.99108 50.834 8.0713 50.834 8.17025H50.9057C50.9057 8.11088 50.9538 8.06275 51.0132 8.06275V7.99108ZM52.6903 7.99108H51.0132V8.06275H52.6903V7.99108ZM52.8694 8.17025C52.8694 8.0713 52.7892 7.99108 52.6903 7.99108V8.06275C52.7496 8.06275 52.7978 8.11088 52.7978 8.17025H52.8694ZM52.8694 16.3836V8.17025H52.7978V16.3836H52.8694ZM63.101 18.268C63.1276 18.3374 63.1941 18.3832 63.2683 18.3832V18.3115C63.2238 18.3115 63.1839 18.284 63.1679 18.2424L63.101 18.268ZM62.6919 17.1991L63.101 18.268L63.1679 18.2424L62.7588 17.1735L62.6919 17.1991ZM59.3976 17.2221H62.7254V17.1504H59.3976V17.2221ZM59.0359 18.2662L59.4312 17.1987L59.364 17.1738L58.9687 18.2413L59.0359 18.2662ZM58.8678 18.3832C58.9428 18.3832 59.0098 18.3365 59.0359 18.2662L58.9687 18.2413C58.953 18.2835 58.9128 18.3115 58.8678 18.3115V18.3832ZM57.0618 18.3832H58.8678V18.3115H57.0618V18.3832ZM56.9139 18.3052C56.9474 18.354 57.0027 18.3832 57.0618 18.3832V18.3115C57.0263 18.3115 56.9931 18.294 56.9731 18.2647L56.9139 18.3052ZM56.8947 18.1392C56.8733 18.1944 56.8805 18.2565 56.9139 18.3052L56.9731 18.2647C56.953 18.2355 56.9487 18.1982 56.9615 18.1651L56.8947 18.1392ZM60.8939 7.81883L56.8947 18.1392L56.9615 18.1651L60.9607 7.84473L60.8939 7.81883ZM61.0608 7.7044C60.9869 7.70444 60.9206 7.7499 60.8939 7.81884L60.9607 7.84473C60.9767 7.80337 61.0165 7.7761 61.0609 7.77607L61.0608 7.7044ZM61.2279 7.81863C61.2011 7.74973 61.1348 7.70436 61.0608 7.7044L61.0609 7.77607C61.1052 7.77604 61.145 7.80326 61.1611 7.84461L61.2279 7.81863ZM65.2414 18.139L61.2279 7.81863L61.1611 7.84461L65.1746 18.165L65.2414 18.139ZM65.2223 18.3051C65.2557 18.2563 65.2628 18.1942 65.2414 18.139L65.1746 18.165C65.1875 18.1981 65.1832 18.2354 65.1632 18.2647L65.2223 18.3051ZM65.0744 18.3832C65.1336 18.3832 65.1889 18.354 65.2223 18.3051L65.1632 18.2647C65.1431 18.294 65.1099 18.3115 65.0744 18.3115V18.3832ZM63.2683 18.3832H65.0744V18.3115H63.2683V18.3832ZM59.2979 17.0788H62.824V17.0071H59.2979V17.0788ZM62.7905 17.0557L63.2349 18.2168L63.3018 18.1912L62.8575 17.0301L62.7905 17.0557ZM58.9014 18.2164L59.3315 17.0554L59.2643 17.0305L58.8342 18.1915L58.9014 18.2164ZM60.0784 15.4637L61.0948 12.558L61.0271 12.5344L60.0107 15.44L60.0784 15.4637ZM62.0773 15.416H60.0445V15.4877H62.0773V15.416ZM61.0271 12.558L62.0435 15.4637L62.1111 15.44L61.0948 12.5344L61.0271 12.558ZM73.4253 18.3832C73.4904 18.3832 73.5504 18.3478 73.582 18.2908L73.5193 18.2561C73.5003 18.2903 73.4643 18.3115 73.4253 18.3115V18.3832ZM71.4615 18.3832H73.4253V18.3115H71.4615V18.3832ZM71.3095 18.2988C71.3422 18.3512 71.3997 18.3832 71.4615 18.3832V18.3115C71.4244 18.3115 71.3899 18.2923 71.3703 18.2608L71.3095 18.2988ZM68.7428 14.1808L71.3095 18.2988L71.3703 18.2608L68.8036 14.1429L68.7428 14.1808ZM68.0357 14.1977H68.7732V14.126H68.0357V14.1977ZM68.0715 18.204V14.1618H67.9999V18.204H68.0715ZM67.8924 18.3832C67.9913 18.3832 68.0715 18.3029 68.0715 18.204H67.9999C67.9999 18.2634 67.9517 18.3115 67.8924 18.3115V18.3832ZM66.2153 18.3832H67.8924V18.3115H66.2153V18.3832ZM66.0361 18.204C66.0361 18.3029 66.1164 18.3832 66.2153 18.3832V18.3115C66.1559 18.3115 66.1078 18.2634 66.1078 18.204H66.0361ZM66.0361 12.3557V18.204H66.1078V12.3557H66.0361ZM66.2153 12.1766C66.1164 12.1766 66.0361 12.2568 66.0361 12.3557H66.1078C66.1078 12.2964 66.1559 12.2482 66.2153 12.2482V12.1766ZM67.5457 12.1766H66.2153V12.2482H67.5457V12.1766ZM66.064 9.94329L67.5154 12.2316L67.576 12.1932L66.1245 9.9049L66.064 9.94329ZM66.0361 9.84732C66.0361 9.8813 66.0458 9.91459 66.064 9.94329L66.1245 9.9049C66.1136 9.88768 66.1078 9.86771 66.1078 9.84732H66.0361ZM66.0361 8.17025V9.84732H66.1078V8.17025H66.0361ZM66.2153 7.99108C66.1164 7.99108 66.0361 8.0713 66.0361 8.17025H66.1078C66.1078 8.11088 66.1559 8.06275 66.2153 8.06275V7.99108ZM69.5551 7.99108H66.2153V8.06275H69.5551V7.99108ZM69.5909 8.17025V8.02691H69.5193V8.17025H69.5909ZM68.8223 14.0374L71.4311 18.2229L71.4919 18.185L68.8832 13.9995L68.8223 14.0374ZM70.7115 13.881C70.7588 13.8678 70.8068 13.8535 70.8551 13.8382L70.8335 13.7699C70.7859 13.7849 70.7388 13.7989 70.6922 13.812L70.7115 13.881ZM70.8551 13.8382C71.3328 13.687 71.8553 13.43 72.2586 12.9955C72.6627 12.5602 72.9451 11.949 72.9451 11.0944H72.8734C72.8734 11.9315 72.5974 12.5251 72.2061 12.9467C71.814 13.3691 71.304 13.621 70.8335 13.7699L70.8551 13.8382ZM72.9451 11.0944C72.9451 10.356 72.7331 9.79993 72.4136 9.38209C72.0945 8.96473 71.6696 8.68734 71.2465 8.50292C70.8234 8.3185 70.4008 8.22646 70.0843 8.18048C69.926 8.15747 69.794 8.14596 69.7015 8.1402C69.6552 8.13731 69.6187 8.13587 69.5938 8.13515C69.5813 8.13478 69.5717 8.1346 69.5652 8.13451C69.562 8.13446 69.5595 8.13444 69.5578 8.13443C69.5569 8.13442 69.5563 8.13442 69.5558 8.13442C69.5556 8.13442 69.5554 8.13442 69.5553 8.13442C69.5553 8.13442 69.5552 8.13442 69.5552 8.13442C69.5551 8.13442 69.5551 8.13442 69.5551 8.17025C69.5551 8.20609 69.5551 8.20609 69.5551 8.20609C69.5551 8.20609 69.5552 8.20609 69.5552 8.20609C69.5553 8.20609 69.5554 8.20609 69.5556 8.20609C69.556 8.20609 69.5565 8.20609 69.5573 8.2061C69.5588 8.20611 69.5611 8.20613 69.5642 8.20617C69.5704 8.20626 69.5796 8.20643 69.5917 8.20678C69.6159 8.20749 69.6516 8.2089 69.697 8.21173C69.7879 8.21739 69.9179 8.22872 70.074 8.2514C70.3865 8.2968 70.8024 8.38752 71.2179 8.56861C71.6333 8.7497 72.0469 9.02058 72.3567 9.42563C72.6661 9.8302 72.8734 10.3707 72.8734 11.0944H72.9451ZM69.5553 7.99108C69.5553 7.99108 69.5552 7.99108 69.5551 7.99108C69.555 7.99108 69.5546 7.99108 69.5544 7.99109C69.5538 7.9911 69.5529 7.99114 69.5517 7.99125C69.5493 7.99149 69.5458 7.99208 69.5419 7.99365C69.5332 7.99716 69.5278 8.00322 69.5248 8.00806C69.5222 8.01223 69.5211 8.01595 69.5207 8.01747C69.5202 8.01929 69.5199 8.02077 69.5198 8.02153C69.5196 8.02305 69.5195 8.02426 69.5195 8.02463C69.5195 8.02516 69.5194 8.0256 69.5194 8.02586C69.5194 8.02673 69.5194 8.02779 69.5194 8.02884C69.5193 8.03123 69.5193 8.03583 69.5193 8.04477C69.5193 8.06272 69.5193 8.09859 69.5193 8.17025H69.5909C69.5909 8.09858 69.591 8.06277 69.591 8.04489C69.591 8.03591 69.591 8.03156 69.591 8.02946C69.591 8.02827 69.5911 8.02821 69.591 8.02852C69.591 8.02864 69.591 8.02898 69.591 8.02943C69.591 8.02972 69.5909 8.03088 69.5907 8.03236C69.5906 8.03311 69.5903 8.03457 69.5898 8.03638C69.5894 8.0379 69.5883 8.04161 69.5857 8.04578C69.5827 8.0506 69.5773 8.05667 69.5686 8.06017C69.5612 8.06314 69.5543 8.06275 69.5552 8.06275L69.5553 7.99108ZM69.5555 7.99108L69.5553 7.99108L69.5552 8.06275L69.5555 8.06275L69.5555 7.99108ZM69.5563 7.99108L69.5556 7.99108L69.5554 8.06275L69.5561 8.06275L69.5563 7.99108ZM69.5587 7.99109L69.5564 7.99108L69.556 8.06275L69.5583 8.06276L69.5587 7.99109ZM69.5671 7.99118L69.5589 7.99109L69.5581 8.06276L69.5664 8.06285L69.5671 7.99118ZM69.598 7.99187C69.5848 7.99148 69.5745 7.99129 69.5672 7.99118L69.5662 8.06285C69.5731 8.06294 69.5831 8.06313 69.5959 8.06351L69.598 7.99187ZM69.7104 7.99713C69.6624 7.99415 69.6244 7.99263 69.598 7.99187L69.5959 8.06351C69.6216 8.06425 69.6588 8.06573 69.7059 8.06867L69.7104 7.99713ZM70.1049 8.03863C69.9422 8.01498 69.8062 8.0031 69.7104 7.99713L69.7059 8.06867C69.8001 8.07453 69.9341 8.08623 70.0946 8.10955L70.1049 8.03863ZM71.3038 8.37152C70.8654 8.18045 70.4296 8.08579 70.1049 8.03863L70.0946 8.10955C70.4152 8.15613 70.8444 8.24947 71.2751 8.43722L71.3038 8.37152ZM72.5275 9.29502C72.1895 8.85304 71.7422 8.56262 71.3038 8.37152L71.2751 8.43722C71.7059 8.62498 72.142 8.90889 72.4706 9.33856L72.5275 9.29502ZM73.0884 11.0944C73.0884 10.3265 72.8673 9.7394 72.5275 9.29502L72.4706 9.33856C72.8002 9.76966 73.0167 10.3412 73.0167 11.0944H73.0884ZM72.298 13.1612C72.7621 12.6952 73.0884 12.0295 73.0884 11.0944H73.0167C73.0167 12.0109 72.6977 12.6583 72.2472 13.1107L72.298 13.1612ZM70.9338 13.9635C71.392 13.8142 71.8932 13.5677 72.298 13.1612L72.2472 13.1107C71.853 13.5066 71.363 13.7483 70.9116 13.8954L70.9338 13.9635ZM73.5772 18.109L70.9531 13.9104L70.8923 13.9484L73.5164 18.147L73.5772 18.109ZM73.582 18.2908C73.6135 18.2339 73.6117 18.1643 73.5772 18.109L73.5164 18.147C73.5371 18.1801 73.5382 18.2219 73.5193 18.2561L73.582 18.2908ZM71.1963 11.0944C71.1963 11.5736 70.9511 11.864 70.6496 12.0418C70.3462 12.2207 69.9867 12.2844 69.7667 12.3057L69.7736 12.3771C69.9978 12.3554 70.3694 12.2902 70.686 12.1035C71.0044 11.9158 71.268 11.6042 71.268 11.0944H71.1963ZM69.5551 9.84732C69.5551 9.88315 69.5551 9.88315 69.5551 9.88315C69.5551 9.88315 69.5551 9.88315 69.5551 9.88315C69.5552 9.88315 69.5552 9.88315 69.5553 9.88315C69.5555 9.88315 69.5557 9.88315 69.5561 9.88316C69.5568 9.88316 69.558 9.88317 69.5595 9.88319C69.5625 9.88322 69.5671 9.8833 69.5731 9.88345C69.585 9.88374 69.6027 9.88434 69.6253 9.88554C69.6704 9.88794 69.7351 9.89274 69.8127 9.90236C69.9682 9.92164 70.175 9.96012 70.3811 10.0368C70.5875 10.1135 70.7914 10.2277 70.9434 10.3973C71.0948 10.5662 71.1963 10.7915 71.1963 11.0944H71.268C71.268 10.7737 71.1599 10.5314 70.9968 10.3495C70.8344 10.1684 70.619 10.0488 70.4061 9.96961C70.1931 9.89039 69.9805 9.85094 69.8216 9.83124C69.742 9.82138 69.6756 9.81644 69.6291 9.81397C69.6058 9.81273 69.5874 9.81211 69.5748 9.8118C69.5685 9.81164 69.5637 9.81156 69.5603 9.81152C69.5587 9.8115 69.5574 9.81149 69.5565 9.81149C69.5561 9.81149 69.5558 9.81148 69.5555 9.81148C69.5554 9.81148 69.5553 9.81148 69.5552 9.81148C69.5552 9.81148 69.5552 9.81148 69.5551 9.81148C69.5551 9.81148 69.5551 9.81148 69.5551 9.84732ZM70.5768 11.9183C70.3351 12.0608 70.049 12.1254 69.8389 12.1532L69.8483 12.2243C70.0628 12.1959 70.3597 12.1295 70.6132 11.98L70.5768 11.9183ZM71.053 11.0944C71.053 11.5123 70.8445 11.7605 70.5768 11.9183L70.6132 11.98C70.8979 11.8122 71.1247 11.5429 71.1247 11.0944H71.053ZM70.8367 10.493C70.9647 10.6358 71.053 10.8271 71.053 11.0944H71.1247C71.1247 10.8093 71.0298 10.601 70.8901 10.4452L70.8367 10.493ZM70.3312 10.1711C70.5244 10.243 70.7054 10.3465 70.8367 10.493L70.8901 10.4452C70.7484 10.2871 70.556 10.1782 70.3562 10.104L70.3312 10.1711ZM69.7951 10.0446C69.9438 10.063 70.1388 10.0996 70.3312 10.1711L70.3562 10.104C70.1569 10.0299 69.956 9.99234 69.8039 9.97349L69.7951 10.0446ZM69.6177 10.0287C69.66 10.0309 69.7213 10.0355 69.7951 10.0446L69.8039 9.97349C69.7282 9.9641 69.6652 9.95943 69.6215 9.95711L69.6177 10.0287ZM69.5695 10.0267C69.5802 10.027 69.5965 10.0276 69.6177 10.0287L69.6215 9.95711C69.5996 9.95595 69.5826 9.95537 69.5713 9.95509L69.5695 10.0267ZM69.5578 10.0265C69.5602 10.0265 69.5641 10.0266 69.5695 10.0267L69.5713 9.95509C69.5656 9.95495 69.5614 9.95488 69.5586 9.95485L69.5578 10.0265ZM69.5551 10.0265L69.5579 10.0265L69.5585 9.95485L69.5558 9.95483L69.5551 10.0265ZM69.5549 10.0265L69.5552 10.0265L69.5557 9.95482L69.5553 9.95482L69.5549 10.0265ZM69.874 12.1697L68.497 9.97163L68.4363 10.0097L69.8132 12.2078L69.874 12.1697ZM28.5674 18.2398H30.3735V18.1681H28.5674V18.2398ZM30.4069 18.191L26.3934 7.87059L26.3266 7.89656L30.3401 18.217L30.4069 18.191ZM26.3266 7.87063L22.3275 18.191L22.3943 18.2169L26.3934 7.89652L26.3266 7.87063ZM22.3609 18.2398H24.1669V18.1681H22.3609V18.2398ZM25.1755 15.607L26.3939 12.1239L26.3262 12.1002L25.1078 15.5834L25.1755 15.607ZM27.5784 15.5594H25.1416V15.631H27.5784V15.5594ZM26.3262 12.1239L27.5446 15.607L27.6122 15.5834L26.3939 12.1002L26.3262 12.1239ZM38.6064 10.704L39.7817 9.52868L39.731 9.478L38.5557 10.6533L38.6064 10.704ZM38.8177 17.3042L38.9037 18.2502L38.975 18.2437L38.889 17.2977L38.8177 17.3042ZM38.9394 18.2828H40.4014V18.2111H38.9394V18.2828ZM40.4373 18.247V12.4991H40.3656V18.247H40.4373ZM40.4014 12.4633H37.0473V12.5349H40.4014V12.4633ZM37.0115 12.4991V14.0902H37.0831V12.4991H37.0115ZM37.0473 14.126H38.7244V14.0543H37.0473V14.126ZM38.6885 14.0902V15.5379H38.7602V14.0902H38.6885ZM49.2804 16.4911H44.2635V16.5627H49.2804V16.4911ZM49.3162 18.204V16.5269H49.2445V18.204H49.3162ZM42.5864 18.2398H49.2804V18.1681H42.5864V18.2398ZM42.5506 8.17025V18.204H42.6223V8.17025H42.5506ZM49.2804 8.13442H42.5864V8.20609H49.2804V8.13442ZM49.3162 9.84732V8.17025H49.2445V9.84732H49.3162ZM44.2635 9.88315H49.2804V9.81148H44.2635V9.88315ZM44.2993 12.3557V9.84732H44.2277V12.3557H44.2993ZM48.4347 12.3199H44.2635V12.3916H48.4347V12.3199ZM48.4705 14.0185V12.3557H48.3988V14.0185H48.4705ZM44.2635 14.0543H48.4347V13.9826H44.2635V14.0543ZM44.2993 16.5269V14.0185H44.2277V16.5269H44.2993ZM56.4027 16.4911H52.6903V16.5627H56.4027V16.4911ZM56.4386 18.204V16.5269H56.3669V18.204H56.4386ZM51.0132 18.2398H56.4027V18.1681H51.0132V18.2398ZM50.9774 8.17025V18.204H51.049V8.17025H50.9774ZM52.6903 8.13442H51.0132V8.20609H52.6903V8.13442ZM52.7261 16.5269V8.17025H52.6544V16.5269H52.7261ZM63.2683 18.2398H65.0744V18.1681H63.2683V18.2398ZM65.1078 18.191L61.0943 7.87059L61.0275 7.89656L65.041 18.217L65.1078 18.191ZM61.0275 7.87063L57.0284 18.191L57.0952 18.2169L61.0943 7.89652L61.0275 7.87063ZM57.0618 18.2398H58.8678V18.1681H57.0618V18.2398ZM59.8764 15.607L61.0948 12.1239L61.0271 12.1002L59.8087 15.5834L59.8764 15.607ZM62.2793 15.5594H59.8425V15.631H62.2793V15.5594ZM61.0271 12.1239L62.2455 15.607L62.3131 15.5834L61.0948 12.1002L61.0271 12.1239ZM69.5551 8.13442H66.2153V8.20609H69.5551V8.13442ZM66.1795 8.17025V9.84732H66.2511V8.17025H66.1795ZM66.185 9.86651L67.7761 12.3749L67.8366 12.3366L66.2456 9.82812L66.185 9.86651ZM67.8064 12.3199H66.2153V12.3916H67.8064V12.3199ZM66.1795 12.3557V18.204H66.2511V12.3557H66.1795ZM66.2153 18.2398H67.8924V18.1681H66.2153V18.2398ZM67.9282 18.204V14.0185H67.8565V18.204H67.9282ZM67.8924 14.0543H68.8527V13.9826H67.8924V14.0543ZM71.4615 18.2398H73.4253V18.1681H71.4615V18.2398ZM73.4556 18.185L70.7322 13.8275L70.6714 13.8655L73.3949 18.223L73.4556 18.185ZM68.2077 9.88315H69.5551V9.81148H68.2077V9.88315ZM69.8005 12.3224L68.2381 9.82829L68.1773 9.86634L69.7397 12.3604L69.8005 12.3224ZM68.4667 10.0265H69.5551V9.95482H68.4667V10.0265Z" fill="url(#paint5_linear_47_430)" mask="url(#path-3-outside-1_47_430)"/>
<path d="M28.5507 17.9235C28.5533 17.9304 28.56 17.935 28.5674 17.935H30.3735C30.3794 17.935 30.3849 17.9321 30.3883 17.9272C30.3916 17.9223 30.3923 17.9161 30.3902 17.9106L26.3767 7.59019C26.374 7.58329 26.3674 7.57876 26.36 7.57876C26.3526 7.57877 26.346 7.58331 26.3433 7.59021L22.3441 17.9106C22.342 17.9161 22.3427 17.9223 22.3461 17.9272C22.3494 17.9321 22.3549 17.935 22.3608 17.935H24.1669C24.1744 17.935 24.1811 17.9303 24.1837 17.9233L24.6094 16.774H28.1107L28.5507 17.9235ZM37.0473 12.1943C37.0374 12.1943 37.0293 12.2023 37.0293 12.2122V13.8033C37.0293 13.8132 37.0374 13.8212 37.0473 13.8212H38.7064V15.2442C38.0935 15.9398 37.2115 16.3654 36.2159 16.3654C35.2945 16.3654 34.4644 16.1083 33.8648 15.5479C33.2654 14.9876 32.894 14.122 32.894 12.9002C32.894 11.8079 33.2652 10.9419 33.8652 10.349C34.4653 9.756 35.2956 9.435 36.2159 9.435C37.1284 9.435 37.9696 9.80571 38.5683 10.4045C38.5717 10.4078 38.5762 10.4097 38.581 10.4097C38.5857 10.4097 38.5903 10.4078 38.5937 10.4045L39.769 9.22908C39.776 9.22212 39.776 9.21085 39.7691 9.20384C38.8628 8.28315 37.6112 7.7221 36.2159 7.7221C33.4394 7.7221 31.1811 9.90904 31.1811 12.9002C31.1811 14.5454 31.7092 15.8402 32.5766 16.7238C33.444 17.6074 34.6493 18.0783 36.0009 18.0783C37.1814 18.0783 38.0262 17.7966 38.8388 17.0519L38.9215 17.9617C38.9223 17.9709 38.9301 17.978 38.9393 17.978H40.4014C40.4113 17.978 40.4193 17.97 40.4193 17.9601V12.2122C40.4193 12.2023 40.4113 12.1943 40.4014 12.1943H37.0473ZM49.2803 9.57834C49.2902 9.57834 49.2983 9.57032 49.2983 9.56042V7.88336C49.2983 7.87346 49.2902 7.86544 49.2803 7.86544H42.5864C42.5765 7.86544 42.5685 7.87346 42.5685 7.88336V17.9171C42.5685 17.927 42.5765 17.935 42.5864 17.935H49.2803C49.2902 17.935 49.2983 17.927 49.2983 17.9171V16.24C49.2983 16.2301 49.2902 16.2221 49.2803 16.2221H44.2814V13.7495H48.4346C48.4445 13.7495 48.4526 13.7415 48.4526 13.7316V12.0689C48.4526 12.059 48.4445 12.0509 48.4346 12.0509H44.2814V9.57834H49.2803ZM56.4027 16.2221H52.7082V7.88336C52.7082 7.87346 52.7001 7.86544 52.6902 7.86544H51.0132C51.0033 7.86544 50.9953 7.87346 50.9953 7.88336V17.9171C50.9953 17.927 51.0033 17.935 51.0132 17.935H56.4027C56.4126 17.935 56.4206 17.927 56.4206 17.9171V16.24C56.4206 16.2301 56.4126 16.2221 56.4027 16.2221ZM63.2516 17.9235C63.2542 17.9304 63.2609 17.935 63.2683 17.935H65.0744C65.0803 17.935 65.0858 17.9321 65.0892 17.9272C65.0925 17.9223 65.0932 17.9161 65.0911 17.9106L61.0776 7.59019C61.0749 7.58329 61.0683 7.57876 61.0609 7.57876C61.0535 7.57877 61.0469 7.58331 61.0442 7.59021L57.045 17.9106C57.0429 17.9161 57.0436 17.9223 57.047 17.9272C57.0503 17.9321 57.0558 17.935 57.0617 17.935H58.8678C58.8753 17.935 58.882 17.9303 58.8846 17.9233L59.3103 16.774H62.8116L63.2516 17.9235ZM73.4252 17.935C73.4317 17.935 73.4377 17.9315 73.4409 17.9258C73.4441 17.9201 73.4439 17.9131 73.4404 17.9076L70.7296 13.5703C71.213 13.4325 71.7575 13.1885 72.1837 12.7606C72.6171 12.3253 72.9271 11.7008 72.9271 10.8075C72.9271 10.0728 72.7163 9.52061 72.3994 9.10608C72.0826 8.6918 71.6605 8.41604 71.2393 8.23245C70.8181 8.04886 70.3972 7.95715 70.0817 7.91132C69.924 7.88839 69.7924 7.87692 69.7003 7.87119C69.6542 7.86832 69.618 7.86688 69.5933 7.86616L69.5649 7.86553L69.5576 7.86545L69.5557 7.86544L69.5553 7.86544L69.5551 7.86544L66.2153 7.86544C66.2054 7.86544 66.1974 7.87346 66.1974 7.88336V9.56042H66.1941L66.2001 9.57002L67.7738 12.0509H66.2153C66.2054 12.0509 66.1974 12.059 66.1974 12.0689V17.9171C66.1974 17.927 66.2054 17.935 66.2153 17.935H67.8923C67.9022 17.935 67.9103 17.927 67.9103 17.9171V13.7495H68.8428L71.4463 17.9266C71.4496 17.9318 71.4553 17.935 71.4615 17.935H73.4252ZM25.1669 15.2904L26.36 11.8794L27.5531 15.2904H25.1669ZM59.8678 15.2904L61.0609 11.8795L62.254 15.2904H59.8678ZM69.7794 12.0356L68.2401 9.57834H69.5551H69.5551L69.5553 9.57834L69.5562 9.57835L69.5597 9.57838L69.5735 9.57864C69.5856 9.57894 69.6034 9.57954 69.6262 9.58075C69.6717 9.58317 69.7368 9.58801 69.8149 9.59769C69.9713 9.61707 70.1795 9.6558 70.3874 9.7331C70.5954 9.81043 70.8021 9.926 70.9568 10.0985C71.1111 10.2706 71.2142 10.5002 71.2142 10.8075C71.2142 11.2943 70.9644 11.5901 70.6586 11.7703C70.357 11.9482 70.0014 12.0131 69.7794 12.0356Z" fill="url(#paint6_linear_47_430)" stroke="url(#paint7_linear_47_430)" stroke-width="0.0358347" stroke-linejoin="round"/>
<path d="M28.5674 17.6305H30.3735L26.36 7.31006L22.3608 17.6305H24.1669L24.5969 16.4694H28.1231L28.5674 17.6305ZM26.36 11.5386L27.5784 15.0217H25.1416L26.36 11.5386Z" fill="url(#paint8_linear_47_430)"/>
<path d="M37.0473 11.9256V13.5166H38.7243V14.9644C38.108 15.6667 37.2193 16.0967 36.2159 16.0967C34.3668 16.0967 32.8761 15.0647 32.8761 12.6136C32.8761 10.4205 34.3668 9.13046 36.2159 9.13046C37.1333 9.13046 37.979 9.50314 38.581 10.1052L39.7564 8.92979C38.8533 8.01242 37.6063 7.4534 36.2159 7.4534C33.4495 7.4534 31.199 9.63215 31.199 12.6136C31.199 15.8961 33.3061 17.7738 36.0009 17.7738C37.1906 17.7738 38.0363 17.4871 38.8533 16.7274L38.9393 17.6735H40.4014V11.9256H37.0473Z" fill="url(#paint9_linear_47_430)"/>
<path d="M49.2803 9.2738V7.59674H42.5864V17.6305H49.2803V15.9534H44.2635V13.445H48.4346V11.7822H44.2635V9.2738H49.2803Z" fill="url(#paint10_linear_47_430)"/>
<path d="M52.6902 15.9534V7.59674H51.0132V17.6305H56.4027V15.9534H52.6902Z" fill="url(#paint11_linear_47_430)"/>
<path d="M63.2683 17.6305H65.0744L61.0609 7.31006L57.0617 17.6305H58.8678L59.2978 16.4694H62.824L63.2683 17.6305ZM61.0609 11.5386L62.2793 15.0217H59.8425L61.0609 11.5386Z" fill="url(#paint12_linear_47_430)"/>
<path d="M73.4252 17.6305L70.7018 13.273C71.6765 13.0006 72.9092 12.2983 72.9092 10.5209C72.9092 7.59674 69.5551 7.59674 69.5551 7.59674H66.2153V9.2738L67.8063 11.7822H66.2153V17.6305H67.8923V13.445H68.8527L71.4615 17.6305H73.4252ZM68.2077 9.2738H69.5551C69.5551 9.2738 71.2321 9.2738 71.2321 10.5209C71.2321 11.5099 70.2144 11.7249 69.7701 11.7679L68.2077 9.2738Z" fill="url(#paint13_linear_47_430)"/>
<path d="M28.5674 17.6305H30.3735L26.36 7.31006L22.3608 17.6305H24.1669L24.5969 16.4694H28.1231L28.5674 17.6305ZM26.36 11.5386L27.5784 15.0217H25.1416L26.36 11.5386Z" stroke="url(#paint14_linear_47_430)" stroke-width="0.0358347" stroke-linejoin="round"/>
<path d="M37.0473 11.9256V13.5166H38.7243V14.9644C38.108 15.6667 37.2193 16.0967 36.2159 16.0967C34.3668 16.0967 32.8761 15.0647 32.8761 12.6136C32.8761 10.4205 34.3668 9.13046 36.2159 9.13046C37.1333 9.13046 37.979 9.50314 38.581 10.1052L39.7564 8.92979C38.8533 8.01242 37.6063 7.4534 36.2159 7.4534C33.4495 7.4534 31.199 9.63215 31.199 12.6136C31.199 15.8961 33.3061 17.7738 36.0009 17.7738C37.1906 17.7738 38.0363 17.4871 38.8533 16.7274L38.9393 17.6735H40.4014V11.9256H37.0473Z" stroke="url(#paint15_linear_47_430)" stroke-width="0.0358347" stroke-linejoin="round"/>
<path d="M49.2803 9.2738V7.59674H42.5864V17.6305H49.2803V15.9534H44.2635V13.445H48.4346V11.7822H44.2635V9.2738H49.2803Z" stroke="url(#paint16_linear_47_430)" stroke-width="0.0358347" stroke-linejoin="round"/>
<path d="M52.6902 15.9534V7.59674H51.0132V17.6305H56.4027V15.9534H52.6902Z" stroke="url(#paint17_linear_47_430)" stroke-width="0.0358347" stroke-linejoin="round"/>
<path d="M63.2683 17.6305H65.0744L61.0609 7.31006L57.0617 17.6305H58.8678L59.2978 16.4694H62.824L63.2683 17.6305ZM61.0609 11.5386L62.2793 15.0217H59.8425L61.0609 11.5386Z" stroke="url(#paint18_linear_47_430)" stroke-width="0.0358347" stroke-linejoin="round"/>
<path d="M73.4252 17.6305L70.7018 13.273C71.6765 13.0006 72.9092 12.2983 72.9092 10.5209C72.9092 7.59674 69.5551 7.59674 69.5551 7.59674H66.2153V9.2738L67.8063 11.7822H66.2153V17.6305H67.8923V13.445H68.8527L71.4615 17.6305H73.4252ZM68.2077 9.2738H69.5551C69.5551 9.2738 71.2321 9.2738 71.2321 10.5209C71.2321 11.5099 70.2144 11.7249 69.7701 11.7679L68.2077 9.2738Z" stroke="url(#paint19_linear_47_430)" stroke-width="0.0358347" stroke-linejoin="round"/>
<mask id="mask0_47_430" style="mask-type:alpha" maskUnits="userSpaceOnUse" x="0" y="0" width="29" height="25">
<path d="M14.9073 7.02361L16.3406 3.72681L2.29342 0L0 12.4705L5.94857 20.6408L7.38196 18.204L14.9073 7.02361Z" fill="#828282"/>
<path d="M17.6307 11.9688L17.4157 5.30354H25.9444L28.1661 18.6341L20.7125 24.4393L10.4637 23.5076L12.1121 19.4941L13.1155 18.9207L17.6307 11.9688Z" fill="#828282"/>
</mask>
<g mask="url(#mask0_47_430)">
<path d="M5.75901 13.5955L6.14978 13.3514L6.08941 12.4541L5.75901 13.5955ZM6.60984 16.06L6.99225 15.7916L6.60908 15.028L6.60984 16.06ZM6.22286 15.2888L6.60908 15.028L6.32563 14.212L6.22286 15.2888ZM5.69805 12.6893L6.08941 12.4541L6.14978 11.5567L5.69805 12.6893ZM5.9366 14.4647L6.32563 14.212L6.14978 13.3514L5.9366 14.4647ZM20.5359 13.8067L20.7815 13.5605L20.8559 12.4541L20.5359 13.8067ZM5.75901 11.7831L6.14978 11.5567L6.32563 10.6961L5.75901 11.7831ZM20.6111 12.6893L20.8559 12.4541L20.7815 11.3476L20.6111 12.6893ZM20.5359 11.5719L20.7815 11.3476L20.5646 10.2865L20.5359 11.5719ZM5.9366 10.9139L6.32563 10.6961L6.60908 9.88008L5.9366 10.9139ZM20.3169 10.5002L20.5646 10.2865L20.2151 9.28024L20.3169 10.5002ZM19.964 9.48399L20.2151 9.28024L19.7427 8.33869L19.964 9.48399ZM6.22286 10.0898L6.60908 9.88008L6.99225 9.11649L6.22286 10.0898ZM19.4868 8.5331L19.7427 8.33869L19.157 7.47153L19.4868 8.5331ZM18.8953 7.65733L19.157 7.47153L18.4677 6.68847L18.8953 7.65733ZM6.60984 9.31861L6.99225 9.11649L7.46726 8.41322L6.60984 9.31861ZM18.1992 6.8665L18.4677 6.68847L17.6847 5.99923L18.1992 6.8665ZM17.4084 6.17042L17.6847 5.99923L16.8175 5.41352L17.4084 6.17042ZM7.08956 8.60836L7.46726 8.41322L8.02624 7.77815L7.08956 8.60836ZM16.5326 5.57889L16.8175 5.41352L15.8759 4.94106L16.5326 5.57889ZM15.5817 5.10174L15.8759 4.94106L14.8697 4.59155L15.5817 5.10174ZM7.65409 7.96699L8.02624 7.77815L8.6613 7.21918L7.65409 7.96699ZM14.5655 4.74876L14.8697 4.59155L13.8086 4.37473L14.5655 4.74876ZM13.4938 4.52979L13.8086 4.37473L12.7021 4.30029L13.4938 4.52979ZM8.29546 7.40247L8.6613 7.21918L9.36457 6.74416L8.29546 7.40247ZM12.3764 4.45461L12.7021 4.30029L11.5957 4.37473L12.3764 4.45461ZM11.259 4.52979L11.5957 4.37473L10.5345 4.59155L11.259 4.52979ZM9.00571 6.92274L9.36457 6.74416L10.1282 6.36099L9.00571 6.92274ZM10.1873 4.74876L10.5345 4.59155L9.52832 4.94106L10.1873 4.74876ZM18.1992 18.5121L18.4677 18.2196L19.157 17.4366L18.1992 18.5121ZM17.0987 17.4116L17.378 17.13L16.743 17.6889L17.0987 17.4116ZM18.8953 17.7213L19.157 17.4366L19.7427 16.5694L18.8953 17.7213ZM19.4868 16.8455L19.7427 16.5694L20.2151 15.6279L19.4868 16.8455ZM19.964 15.8946L20.2151 15.6279L20.5646 14.6216L19.964 15.8946ZM16.4573 17.9761L16.743 17.6889L16.0397 18.1639L16.4573 17.9761ZM20.3169 14.8784L20.5646 14.6216L20.7815 13.5605L20.3169 14.8784ZM7.08956 16.7703L7.46726 16.4949L6.99225 15.7916L7.08956 16.7703ZM7.65409 17.4116L8.02624 17.13L7.46726 16.4949L7.65409 17.4116ZM15.7471 18.4559L16.0397 18.1639L15.2761 18.5471L15.7471 18.4559ZM8.29546 17.9761L8.6613 17.6889L8.02624 17.13L8.29546 17.9761ZM9.00571 18.4559L9.36457 18.1639L8.6613 17.6889L9.00571 18.4559ZM9.77688 18.8428L10.1282 18.5471L9.36457 18.1639L9.77688 18.8428ZM14.9759 18.8428L15.2761 18.5471L14.4601 18.8306L14.9759 18.8428ZM10.601 19.1291L10.9442 18.8306L10.1282 18.5471L10.601 19.1291ZM11.4702 19.3067L11.8048 19.0064L10.9442 18.8306L11.4702 19.3067ZM12.3764 19.3677L12.7021 19.0668L11.8048 19.0064L12.3764 19.3677ZM14.1518 19.1291L14.4601 18.8306L13.5994 19.0064L14.1518 19.1291ZM13.2826 19.3067L13.5994 19.0064L12.7021 19.0668L13.2826 19.3067ZM8.29546 17.9761L9.00571 18.4559L8.6613 17.6889L8.29546 17.9761ZM6.60984 16.06L7.08956 16.7703L6.99225 15.7916L6.60984 16.06ZM12.3764 19.3677L13.2826 19.3067L12.7021 19.0668L12.3764 19.3677ZM6.22286 15.2888L6.60984 16.06L6.60908 15.028L6.22286 15.2888ZM5.9366 14.4647L6.22286 15.2888L6.32563 14.212L5.9366 14.4647ZM11.4702 19.3067L12.3764 19.3677L11.8048 19.0064L11.4702 19.3067ZM5.75901 13.5955L5.9366 14.4647L6.14978 13.3514L5.75901 13.5955ZM10.601 19.1291L11.4702 19.3067L10.9442 18.8306L10.601 19.1291ZM14.1518 19.1291L14.9759 18.8428L14.4601 18.8306L14.1518 19.1291ZM9.77688 18.8428L10.601 19.1291L10.1282 18.5471L9.77688 18.8428ZM9.00571 18.4559L9.77688 18.8428L9.36457 18.1639L9.00571 18.4559ZM13.2826 19.3067L14.1518 19.1291L13.5994 19.0064L13.2826 19.3067ZM14.9759 18.8428L15.7471 18.4559L15.2761 18.5471L14.9759 18.8428ZM7.65409 17.4116L8.29546 17.9761L8.02624 17.13L7.65409 17.4116ZM7.08956 16.7703L7.65409 17.4116L7.46726 16.4949L7.08956 16.7703ZM20.5359 13.8067L20.3169 14.8784L20.7815 13.5605L20.5359 13.8067ZM15.7471 18.4559L16.4573 17.9761L16.0397 18.1639L15.7471 18.4559ZM20.3169 14.8784L19.964 15.8946L20.5646 14.6216L20.3169 14.8784ZM18.8953 17.7213L18.1992 18.5121L19.157 17.4366L18.8953 17.7213ZM16.4573 17.9761L17.0987 17.4116L16.743 17.6889L16.4573 17.9761ZM19.4868 16.8455L18.8953 17.7213L19.7427 16.5694L19.4868 16.8455ZM19.964 15.8946L19.4868 16.8455L20.2151 15.6279L19.964 15.8946ZM18.1992 6.8665L18.8953 7.65733L18.4677 6.68847L18.1992 6.8665ZM9.77688 6.53577L9.00571 6.92274L10.1282 6.36099L9.77688 6.53577ZM7.08956 8.60836L6.60984 9.31861L7.46726 8.41322L7.08956 8.60836ZM17.4084 6.17042L18.1992 6.8665L17.6847 5.99923L17.4084 6.17042ZM20.5359 11.5719L20.6111 12.6893L20.7815 11.3476L20.5359 11.5719ZM20.3169 10.5002L20.5359 11.5719L20.5646 10.2865L20.3169 10.5002ZM16.5326 5.57889L17.4084 6.17042L16.8175 5.41352L16.5326 5.57889ZM7.65409 7.96699L7.08956 8.60836L8.02624 7.77815L7.65409 7.96699ZM15.5817 5.10174L16.5326 5.57889L15.8759 4.94106L15.5817 5.10174ZM5.75901 11.7831L5.69805 12.6893L6.14978 11.5567L5.75901 11.7831ZM14.5655 4.74876L15.5817 5.10174L14.8697 4.59155L14.5655 4.74876ZM8.29546 7.40247L7.65409 7.96699L8.6613 7.21918L8.29546 7.40247ZM13.4938 4.52979L14.5655 4.74876L13.8086 4.37473L13.4938 4.52979ZM5.69805 12.6893L5.75901 13.5955L6.08941 12.4541L5.69805 12.6893ZM12.3764 4.45461L13.4938 4.52979L12.7021 4.30029L12.3764 4.45461ZM9.00571 6.92274L8.29546 7.40247L9.36457 6.74416L9.00571 6.92274ZM11.259 4.52979L12.3764 4.45461L11.5957 4.37473L11.259 4.52979ZM20.6111 12.6893L20.5359 13.8067L20.8559 12.4541L20.6111 12.6893ZM6.22286 10.0898L5.9366 10.9139L6.60908 9.88008L6.22286 10.0898ZM10.1873 4.74876L11.259 4.52979L10.5345 4.59155L10.1873 4.74876ZM9.17109 5.10174L10.1873 4.74876L9.52832 4.94106L9.17109 5.10174ZM19.964 9.48399L20.3169 10.5002L20.2151 9.28024L19.964 9.48399ZM19.4868 8.5331L19.964 9.48399L19.7427 8.33869L19.4868 8.5331ZM5.9366 10.9139L5.75901 11.7831L6.32563 10.6961L5.9366 10.9139ZM6.60984 9.31861L6.22286 10.0898L6.99225 9.11649L6.60984 9.31861ZM18.8953 7.65733L19.4868 8.5331L19.157 7.47153L18.8953 7.65733ZM16.8138 17.6989L17.0987 17.4116L16.4573 17.9761L16.8138 17.6989ZM13.8373 19.4336L14.1518 19.1291L13.2826 19.3067L13.8373 19.4336ZM18.6284 18.0117L18.8953 17.7213L19.4868 16.8455L18.6284 18.0117ZM19.2258 17.1271L19.4868 16.8455L19.964 15.8946L19.2258 17.1271ZM12.9594 19.613L13.2826 19.3067L12.3764 19.3677L12.9594 19.613ZM6.21976 16.3338L6.60984 16.06L6.22286 15.2888L6.21976 16.3338ZM17.9253 18.8105L18.1992 18.5121L18.8953 17.7213L17.9253 18.8105ZM5.82891 15.5549L6.22286 15.2888L5.9366 14.4647L5.82891 15.5549ZM12.0441 19.6746L12.3764 19.3677L11.4702 19.3067L12.0441 19.6746ZM5.53978 14.7224L5.9366 14.4647L5.75901 13.5955L5.53978 14.7224ZM19.7078 16.1667L19.964 15.8946L20.3169 14.8784L19.7078 16.1667ZM14.6697 19.1445L14.9759 18.8428L14.1518 19.1291L14.6697 19.1445ZM11.1288 19.613L11.4702 19.3067L10.601 19.1291L11.1288 19.613ZM10.251 19.4336L10.601 19.1291L9.77688 18.8428L10.251 19.4336ZM9.41856 19.1445L9.77688 18.8428L9.00571 18.4559L9.41856 19.1445ZM15.4486 18.7537L15.7471 18.4559L14.9759 18.8428L15.4486 18.7537ZM20.0643 15.1403L20.3169 14.8784L20.5359 13.8067L20.0643 15.1403ZM8.63965 18.7537L9.00571 18.4559L8.29546 17.9761L8.63965 18.7537ZM7.92228 18.2691L8.29546 17.9761L7.65409 17.4116L7.92228 18.2691ZM6.7043 17.0511L7.08956 16.7703L6.60984 16.06L6.7043 17.0511ZM7.27448 17.6989L7.65409 17.4116L7.08956 16.7703L7.27448 17.6989ZM16.166 18.2691L16.4573 17.9761L15.7471 18.4559L16.166 18.2691ZM20.0643 10.7182L20.3169 10.5002L19.964 9.48399L20.0643 10.7182ZM14.2552 4.90913L14.5655 4.74876L13.4938 4.52979L14.2552 4.90913ZM15.2816 5.26564L15.5817 5.10174L14.5655 4.74876L15.2816 5.26564ZM7.27448 8.15962L7.65409 7.96699L8.29546 7.40247L7.27448 8.15962ZM6.7043 8.80742L7.08956 8.60836L7.65409 7.96699L6.7043 8.80742ZM16.242 5.74758L16.5326 5.57889L15.5817 5.10174L16.242 5.74758ZM5.3604 13.8446L5.75901 13.5955L5.69805 12.6893L5.3604 13.8446ZM8.63965 7.1049L9.00571 6.92274L9.77688 6.53577L8.63965 7.1049ZM9.83308 4.90913L10.1873 4.74876L9.17109 5.10174L9.83308 4.90913ZM17.1266 6.34503L17.4084 6.17042L16.5326 5.57889L17.1266 6.34503ZM13.1727 4.68795L13.4938 4.52979L12.3764 4.45461L13.1727 4.68795ZM6.21976 9.52479L6.60984 9.31861L7.08956 8.60836L6.21976 9.52479ZM17.9253 7.04809L18.1992 6.8665L17.4084 6.17042L17.9253 7.04809ZM5.29883 12.9293L5.69805 12.6893L5.75901 11.7831L5.29883 12.9293ZM20.2855 14.0579L20.5359 13.8067L20.6111 12.6893L20.2855 14.0579ZM18.6284 7.84685L18.8953 7.65733L18.1992 6.8665L18.6284 7.84685ZM12.0441 4.61203L12.3764 4.45461L11.259 4.52979L12.0441 4.61203ZM5.82891 10.3037L6.22286 10.0898L6.60984 9.31861L5.82891 10.3037ZM19.2258 8.7314L19.4868 8.5331L18.8953 7.65733L19.2258 8.7314ZM10.9155 4.68795L11.259 4.52979L10.1873 4.74876L10.9155 4.68795ZM7.92228 7.58944L8.29546 7.40247L9.00571 6.92274L7.92228 7.58944ZM19.7078 9.69183L19.964 9.48399L19.4868 8.5331L19.7078 9.69183ZM20.3614 12.9293L20.6111 12.6893L20.5359 11.5719L20.3614 12.9293ZM5.53978 11.1361L5.9366 10.9139L6.22286 10.0898L5.53978 11.1361ZM5.3604 12.014L5.75901 11.7831L5.9366 10.9139L5.3604 12.014ZM20.2855 11.8007L20.5359 11.5719L20.3169 10.5002L20.2855 11.8007ZM6.21976 16.3338L6.7043 17.0511L6.60984 16.06L6.21976 16.3338ZM20.0643 15.1403L19.7078 16.1667L20.3169 14.8784L20.0643 15.1403ZM10.251 19.4336L11.1288 19.613L10.601 19.1291L10.251 19.4336ZM6.7043 17.0511L7.27448 17.6989L7.08956 16.7703L6.7043 17.0511ZM14.6697 19.1445L15.4486 18.7537L14.9759 18.8428L14.6697 19.1445ZM8.63965 18.7537L9.41856 19.1445L9.00571 18.4559L8.63965 18.7537ZM12.9594 19.613L13.8373 19.4336L13.2826 19.3067L12.9594 19.613ZM20.2855 14.0579L20.0643 15.1403L20.5359 13.8067L20.2855 14.0579ZM11.1288 19.613L12.0441 19.6746L11.4702 19.3067L11.1288 19.613ZM19.2258 17.1271L18.6284 18.0117L19.4868 16.8455L19.2258 17.1271ZM5.3604 13.8446L5.53978 14.7224L5.75901 13.5955L5.3604 13.8446ZM9.41856 19.1445L10.251 19.4336L9.77688 18.8428L9.41856 19.1445ZM7.27448 17.6989L7.92228 18.2691L7.65409 17.4116L7.27448 17.6989ZM13.8373 19.4336L14.6697 19.1445L14.1518 19.1291L13.8373 19.4336ZM5.53978 14.7224L5.82891 15.5549L5.9366 14.4647L5.53978 14.7224ZM16.166 18.2691L16.8138 17.6989L16.4573 17.9761L16.166 18.2691ZM12.0441 19.6746L12.9594 19.613L12.3764 19.3677L12.0441 19.6746ZM15.4486 18.7537L16.166 18.2691L15.7471 18.4559L15.4486 18.7537ZM5.82891 15.5549L6.21976 16.3338L6.22286 15.2888L5.82891 15.5549ZM18.6284 18.0117L17.9253 18.8105L18.8953 17.7213L18.6284 18.0117ZM19.7078 16.1667L19.2258 17.1271L19.964 15.8946L19.7078 16.1667ZM7.92228 18.2691L8.63965 18.7537L8.29546 17.9761L7.92228 18.2691ZM5.29883 12.9293L5.3604 13.8446L5.69805 12.6893L5.29883 12.9293ZM16.242 5.74758L17.1266 6.34503L16.5326 5.57889L16.242 5.74758ZM20.0643 10.7182L20.2855 11.8007L20.3169 10.5002L20.0643 10.7182ZM8.63965 7.1049L7.92228 7.58944L9.00571 6.92274L8.63965 7.1049ZM12.0441 4.61203L13.1727 4.68795L12.3764 4.45461L12.0441 4.61203ZM6.21976 9.52479L5.82891 10.3037L6.60984 9.31861L6.21976 9.52479ZM20.2855 11.8007L20.3614 12.9293L20.5359 11.5719L20.2855 11.8007ZM17.1266 6.34503L17.9253 7.04809L17.4084 6.17042L17.1266 6.34503ZM7.27448 8.15962L6.7043 8.80742L7.65409 7.96699L7.27448 8.15962ZM8.80669 5.26564L9.83308 4.90913L9.17109 5.10174L8.80669 5.26564ZM20.3614 12.9293L20.2855 14.0579L20.6111 12.6893L20.3614 12.9293ZM13.1727 4.68795L14.2552 4.90913L13.4938 4.52979L13.1727 4.68795ZM17.9253 7.04809L18.6284 7.84685L18.1992 6.8665L17.9253 7.04809ZM5.3604 12.014L5.29883 12.9293L5.75901 11.7831L5.3604 12.014ZM9.41856 6.71405L8.63965 7.1049L9.77688 6.53577L9.41856 6.71405ZM5.82891 10.3037L5.53978 11.1361L6.22286 10.0898L5.82891 10.3037ZM18.6284 7.84685L19.2258 8.7314L18.8953 7.65733L18.6284 7.84685ZM14.2552 4.90913L15.2816 5.26564L14.5655 4.74876L14.2552 4.90913ZM9.83308 4.90913L10.9155 4.68795L10.1873 4.74876L9.83308 4.90913ZM5.53978 11.1361L5.3604 12.014L5.9366 10.9139L5.53978 11.1361ZM19.2258 8.7314L19.7078 9.69183L19.4868 8.5331L19.2258 8.7314ZM7.92228 7.58944L7.27448 8.15962L8.29546 7.40247L7.92228 7.58944ZM15.2816 5.26564L16.242 5.74758L15.5817 5.10174L15.2816 5.26564ZM6.7043 8.80742L6.21976 9.52479L7.08956 8.60836L6.7043 8.80742ZM19.7078 9.69183L20.0643 10.7182L19.964 9.48399L19.7078 9.69183ZM10.9155 4.68795L12.0441 4.61203L11.259 4.52979L10.9155 4.68795Z" fill="url(#paint20_linear_47_430)"/>
<path d="M5.82883 15.5546L3.72681 12.9291L7.84618 20.1108L5.82883 15.5546ZM19.2258 17.1269L19.7077 16.1665L20.0642 15.1401L19.2258 17.1269ZM18.7894 12.9291L18.7278 13.8444L20.3613 12.9291H18.7894ZM20.3613 12.9291L18.5484 11.1359L18.7278 12.0138L20.3613 12.9291ZM18.7278 13.8444L18.5484 14.7222L20.3613 12.9291L18.7278 13.8444ZM20.3613 12.9291L18.2593 10.3035L18.5484 11.1359L20.3613 12.9291ZM18.5484 14.7222L18.2593 15.5546L20.3613 12.9291L18.5484 14.7222ZM20.3613 12.9291L16.2419 5.74736L18.2593 10.3035L20.3613 12.9291ZM18.2593 15.5546L17.8684 16.3336L20.3613 12.9291L18.2593 15.5546ZM16.2419 5.74736L17.8684 9.52458L18.2593 10.3035L16.2419 5.74736ZM17.8684 16.3336L17.3839 17.0509L20.3613 12.9291L17.8684 16.3336ZM16.2419 5.74736L17.3839 8.80721L17.8684 9.52458L16.2419 5.74736ZM17.3839 17.0509L16.2419 20.1108L20.3613 12.9291L17.3839 17.0509ZM16.2419 5.74736L16.8137 8.15941L17.3839 8.80721L16.2419 5.74736ZM17.3839 17.0509L16.8137 17.6987L16.2419 20.1108L17.3839 17.0509ZM16.2419 5.74736L16.1659 7.58922L16.8137 8.15941L16.2419 5.74736ZM16.8137 17.6987L16.1659 18.2689L16.2419 20.1108L16.8137 17.6987ZM16.2419 5.74736L15.4485 7.10469L16.1659 7.58922L16.2419 5.74736ZM16.1659 18.2689L15.4485 18.7534L16.2419 20.1108L16.1659 18.2689ZM16.2419 5.74736L14.6696 6.71383L15.4485 7.10469L16.2419 5.74736ZM15.4485 18.7534L14.6696 19.1443L16.2419 20.1108L15.4485 18.7534ZM16.2419 5.74736L13.8372 6.4247L14.6696 6.71383L16.2419 5.74736ZM14.6696 19.1443L13.8372 19.4334L16.2419 20.1108L14.6696 19.1443ZM16.2419 5.74736L12.9594 6.24533L13.8372 6.4247L16.2419 5.74736ZM13.8372 19.4334L12.9594 19.6128L16.2419 20.1108L13.8372 19.4334ZM16.2419 5.74736H7.84618L12.9594 6.24533L16.2419 5.74736ZM12.9594 19.6128L12.0441 19.6744L16.2419 20.1108L12.9594 19.6128ZM7.84618 5.74736L12.0441 6.18375L12.9594 6.24533L7.84618 5.74736ZM12.0441 19.6744L11.1288 19.6128L16.2419 20.1108L12.0441 19.6744ZM7.84618 5.74736L11.1288 6.24533L12.0441 6.18375L7.84618 5.74736ZM11.1288 19.6128L7.84618 20.1108H16.2419L11.1288 19.6128ZM7.84618 5.74736L10.2509 6.4247L11.1288 6.24533L7.84618 5.74736ZM11.1288 19.6128L10.2509 19.4334L7.84618 20.1108L11.1288 19.6128ZM7.84618 5.74736L9.41848 6.71383L10.2509 6.4247L7.84618 5.74736ZM10.2509 19.4334L9.41848 19.1443L7.84618 20.1108L10.2509 19.4334ZM7.84618 5.74736L8.63957 7.10469L9.41848 6.71383L7.84618 5.74736ZM9.41848 19.1443L8.63957 18.7534L7.84618 20.1108L9.41848 19.1443ZM7.84618 5.74736L7.9222 7.58922L8.63957 7.10469L7.84618 5.74736ZM8.63957 18.7534L7.9222 18.2689L7.84618 20.1108L8.63957 18.7534ZM7.84618 5.74736L7.2744 8.15941L7.9222 7.58922L7.84618 5.74736ZM7.9222 18.2689L7.2744 17.6987L7.84618 20.1108L7.9222 18.2689ZM7.84618 5.74736L6.70422 8.80721L7.2744 8.15941L7.84618 5.74736ZM7.2744 17.6987L6.70422 17.0509L7.84618 20.1108L7.2744 17.6987ZM7.84618 5.74736L3.72681 12.9291L6.70422 8.80721L7.84618 5.74736ZM6.70422 17.0509L6.21968 16.3336L7.84618 20.1108L6.70422 17.0509ZM3.72681 12.9291L6.21968 9.52458L6.70422 8.80721L3.72681 12.9291ZM6.21968 16.3336L5.82883 15.5546L7.84618 20.1108L6.21968 16.3336ZM3.72681 12.9291L5.82883 10.3035L6.21968 9.52458L3.72681 12.9291ZM20.3613 12.9291L18.7278 12.0138L18.7894 12.9291H20.3613ZM20.3613 12.9291L19.2258 8.73119L16.2419 5.74736L20.3613 12.9291ZM16.2419 5.74736L12.0441 4.61182L7.84618 5.74736H16.2419ZM7.84618 5.74736L4.86235 8.73119L3.72681 12.9291L7.84618 5.74736ZM3.72681 12.9291L5.53969 11.1359L5.82883 10.3035L3.72681 12.9291ZM5.82883 15.5546L5.53969 14.7222L3.72681 12.9291L5.82883 15.5546ZM3.72681 12.9291L4.86235 17.1269L7.84618 20.1108L3.72681 12.9291ZM7.84618 20.1108L12.0441 21.2463L16.2419 20.1108H7.84618ZM16.2419 20.1108L19.2258 17.1269L20.3613 12.9291L16.2419 20.1108ZM20.3613 12.9291L20.0642 10.718L19.2258 8.73119L20.3613 12.9291ZM19.2258 8.73119L17.9252 7.04788L16.2419 5.74736L19.2258 8.73119ZM16.2419 5.74736L14.2551 4.90892L12.0441 4.61182L16.2419 5.74736ZM12.0441 4.61182L9.833 4.90892L7.84618 5.74736L12.0441 4.61182ZM7.84618 5.74736L6.16287 7.04788L4.86235 8.73119L7.84618 5.74736ZM4.86235 8.73119L4.02391 10.718L3.72681 12.9291L4.86235 8.73119ZM3.72681 12.9291L5.36032 12.0138L5.53969 11.1359L3.72681 12.9291ZM5.53969 14.7222L5.36032 13.8444L3.72681 12.9291L5.53969 14.7222ZM3.72681 12.9291L4.02391 15.1401L4.86235 17.1269L3.72681 12.9291ZM4.86235 17.1269L6.16287 18.8102L7.84618 20.1108L4.86235 17.1269ZM7.84618 20.1108L9.833 20.9492L12.0441 21.2463L7.84618 20.1108ZM12.0441 21.2463L14.2551 20.9492L16.2419 20.1108L12.0441 21.2463ZM16.2419 20.1108L17.9252 18.8102L19.2258 17.1269L16.2419 20.1108ZM19.2258 17.1269L20.0642 15.1401L20.3613 12.9291L19.2258 17.1269ZM20.3613 12.9291L20.2854 11.8005L20.0642 10.718L20.3613 12.9291ZM20.0642 10.718L19.7077 9.69162L19.2258 8.73119L20.0642 10.718ZM19.2258 8.73119L18.6283 7.84664L17.9252 7.04788L19.2258 8.73119ZM17.9252 7.04788L17.1265 6.34482L16.2419 5.74736L17.9252 7.04788ZM16.2419 5.74736L15.2815 5.26543L14.2551 4.90892L16.2419 5.74736ZM14.2551 4.90892L13.1727 4.68774L12.0441 4.61182L14.2551 4.90892ZM12.0441 4.61182L10.9155 4.68774L9.833 4.90892L12.0441 4.61182ZM9.833 4.90892L8.80661 5.26543L7.84618 5.74736L9.833 4.90892ZM7.84618 5.74736L6.96163 6.34482L6.16287 7.04788L7.84618 5.74736ZM6.16287 7.04788L5.45981 7.84664L4.86235 8.73119L6.16287 7.04788ZM4.86235 8.73119L4.38042 9.69162L4.02391 10.718L4.86235 8.73119ZM4.02391 10.718L3.80273 11.8005L3.72681 12.9291L4.02391 10.718ZM3.72681 12.9291H5.29875L5.36032 12.0138L3.72681 12.9291ZM5.36032 13.8444L5.29875 12.9291H3.72681L5.36032 13.8444ZM3.72681 12.9291L3.80273 14.0577L4.02391 15.1401L3.72681 12.9291ZM4.02391 15.1401L4.38042 16.1665L4.86235 17.1269L4.02391 15.1401ZM4.86235 17.1269L5.45981 18.0115L6.16287 18.8102L4.86235 17.1269ZM6.16287 18.8102L6.96163 19.5133L7.84618 20.1108L6.16287 18.8102ZM7.84618 20.1108L8.80661 20.5927L9.833 20.9492L7.84618 20.1108ZM9.833 20.9492L10.9155 21.1704L12.0441 21.2463L9.833 20.9492ZM12.0441 21.2463L13.1727 21.1704L14.2551 20.9492L12.0441 21.2463ZM14.2551 20.9492L15.2815 20.5927L16.2419 20.1108L14.2551 20.9492ZM16.2419 20.1108L17.1265 19.5133L17.9252 18.8102L16.2419 20.1108ZM17.9252 18.8102L18.6283 18.0115L19.2258 17.1269L17.9252 18.8102ZM20.0642 15.1401L20.2854 14.0577L20.3613 12.9291L20.0642 15.1401Z" fill="url(#paint21_linear_47_430)"/>
</g>
<path fill-rule="evenodd" clip-rule="evenodd" d="M17.3314 16.0082L16.6571 2.0791L15.2188 3.86677L15.8022 17.6882C16.1894 17.3899 16.9906 16.5477 17.3314 16.0082Z" fill="url(#paint22_linear_47_430)"/>
<path fill-rule="evenodd" clip-rule="evenodd" d="M13.6492 16.1625C13.6177 16.1863 13.5805 16.2 13.5409 16.2H13.4915H10.4693C10.3564 16.2 10.2632 16.0877 10.2632 15.9504V14.4596C10.2632 14.3223 10.356 14.21 10.4693 14.21H13.5409C13.5927 14.21 13.6402 14.2334 13.6765 14.272C13.6826 14.2756 13.6885 14.2794 13.6942 14.2835L14.8007 15.0755C14.9024 15.1484 14.9024 15.268 14.8007 15.3408L13.6767 16.1454C13.668 16.1516 13.6588 16.1573 13.6492 16.1625Z" fill="#B2230C"/>
<path fill-rule="evenodd" clip-rule="evenodd" d="M10.8649 16.1928H9.96201C9.84994 16.1928 9.75586 16.0805 9.75586 15.9432V14.494C9.75586 14.3567 9.84866 14.2461 9.96201 14.2443L11.6924 14.2168C11.9842 14.2121 11.3083 16.1928 10.8649 16.1928Z" fill="#962212"/>
<path fill-rule="evenodd" clip-rule="evenodd" d="M15.387 7.149H14.4842C14.3729 7.149 14.2551 7.05389 14.278 6.94285L14.7247 4.78409C14.7477 4.67305 14.8175 4.57941 14.9309 4.57793L16.6613 4.55518C16.9531 4.55133 15.8305 7.149 15.387 7.149Z" fill="#962212"/>
<path fill-rule="evenodd" clip-rule="evenodd" d="M13.5284 3.11391L16.0955 1.1223L16.0957 1.12225C16.355 0.864501 16.7213 1.05799 16.7252 1.39716L16.7612 4.57154L8.25865 21.2416C8.21075 21.3355 8.09314 21.4133 7.99915 21.4133H5.57082C5.47701 21.4133 5.43837 21.3359 5.48671 21.2416L14.379 3.88613L13.5568 3.62078C13.2972 3.537 13.3465 3.25501 13.5284 3.11391Z" fill="#FC3110"/>
<path fill-rule="evenodd" clip-rule="evenodd" d="M13.5096 3.12465L16.0767 1.13305L16.0769 1.13299C16.3362 0.875243 16.7025 1.06874 16.7064 1.4079L16.7424 4.58229L8.23985 21.2523C8.19195 21.3462 8.07434 21.4241 7.98035 21.4241H5.55202C5.45821 21.4241 5.41957 21.3467 5.46791 21.2523L14.3602 3.89687L13.538 3.63152C13.2784 3.54775 13.3277 3.26575 13.5096 3.12465Z" fill="#FC3110"/>
<mask id="mask1_47_430" style="mask-type:alpha" maskUnits="userSpaceOnUse" x="5" y="1" width="12" height="21">
<path fill-rule="evenodd" clip-rule="evenodd" d="M13.5096 3.12465L16.0767 1.13305L16.0769 1.13299C16.3362 0.875243 16.7025 1.06874 16.7064 1.4079L16.7424 4.58229L8.23985 21.2523C8.19195 21.3462 8.07434 21.4241 7.98035 21.4241H5.55202C5.45821 21.4241 5.41957 21.3467 5.46791 21.2523L14.3602 3.89687L13.538 3.63152C13.2784 3.54775 13.3277 3.26575 13.5096 3.12465Z" fill="#FC3110"/>
</mask>
<g mask="url(#mask1_47_430)">
<path d="M17.3977 2.82768L7.06892 22.9737L7.03442 22.9561L17.3632 2.81006L17.3977 2.82768Z" fill="#F8B670"/>
<path d="M18.0047 1.08891L6.01472 24.4749L5.98022 24.4573L17.9702 1.07129L18.0047 1.08891Z" fill="#E5097F"/>
<path d="M18.6113 -0.649862L4.96028 25.9761L4.92578 25.9585L18.5768 -0.66748L18.6113 -0.649862Z" fill="#009846"/>
<path d="M19.2183 -2.38912L3.90608 27.4769L3.87158 27.4593L19.1838 -2.40674L19.2183 -2.38912Z" fill="#9089B0"/>
<path d="M19.8252 -4.12789L2.85188 28.9781L2.81738 28.9605L19.7907 -4.14551L19.8252 -4.12789Z" fill="#CB5499"/>
<path d="M20.4322 -5.86666L1.79768 30.4793L1.76318 30.4617L20.3977 -5.88428L20.4322 -5.86666Z" fill="#F08683"/>
<path d="M21.0391 -7.60543L0.743482 31.9805L0.708984 31.9629L21.0046 -7.62305L21.0391 -7.60543Z" fill="#A8D4AF"/>
<path d="M21.6458 -9.3442L-0.310961 33.4818L-0.345459 33.4641L21.6113 -9.36182L21.6458 -9.3442Z" fill="#F08143"/>
<path d="M22.2527 -11.083L-1.36516 34.983L-1.39966 34.9654L22.2182 -11.1006L22.2527 -11.083Z" fill="#A79ECD"/>
<path d="M22.8597 -12.8217L-2.41936 36.4842L-2.45386 36.4666L22.8252 -12.8394L22.8597 -12.8217Z" fill="#57A7B3"/>
<path d="M23.4666 -14.561L-3.47356 37.9849L-3.50806 37.9673L23.4321 -14.5786L23.4666 -14.561Z" fill="#CE82B5"/>
<path d="M24.0735 -16.2998L-4.52776 39.4862L-4.56226 39.4685L24.039 -16.3174L24.0735 -16.2998Z" fill="#A79ECD"/>
<path d="M24.6802 -18.0385L-5.5822 40.9874L-5.6167 40.9698L24.6457 -18.0562L24.6802 -18.0385Z" fill="#F8B670"/>
<path d="M25.2872 -19.7773L-6.6364 42.4886L-6.6709 42.471L25.2527 -19.7949L25.2872 -19.7773Z" fill="#A79ECD"/>
</g>
<defs>
<linearGradient id="paint0_linear_47_430" x1="68.0464" y1="18.347" x2="67.6092" y2="6.5239" gradientUnits="userSpaceOnUse">
<stop stop-color="#6B4500"/>
<stop offset="0.322917" stop-color="#D5B26B"/>
<stop offset="0.546875" stop-color="#F8F9D0"/>
<stop offset="1" stop-color="#997A3D"/>
</linearGradient>
<linearGradient id="paint1_linear_47_430" x1="79.5531" y1="22.6472" x2="79.3923" y2="7.50558" gradientUnits="userSpaceOnUse">
<stop stop-color="#6B4500"/>
<stop offset="0.322917" stop-color="#D5B26B"/>
<stop offset="0.546875" stop-color="#F8F9D0"/>
<stop offset="1" stop-color="#997A3D"/>
</linearGradient>
<linearGradient id="paint2_linear_47_430" x1="53.9671" y1="8.38499" x2="51.8205" y2="17.1451" gradientUnits="userSpaceOnUse">
<stop stop-color="#202020"/>
<stop offset="1" stop-color="#616161"/>
</linearGradient>
<linearGradient id="paint3_linear_47_430" x1="68.0669" y1="15.5453" x2="63.9577" y2="0.357538" gradientUnits="userSpaceOnUse">
<stop stop-color="#202020"/>
<stop offset="1" stop-color="#616161"/>
</linearGradient>
<linearGradient id="paint4_linear_47_430" x1="77.6573" y1="20.0487" x2="68.98" y2="-3.55519" gradientUnits="userSpaceOnUse">
<stop stop-color="#202020"/>
<stop offset="1" stop-color="#616161"/>
</linearGradient>
<linearGradient id="paint5_linear_47_430" x1="68.1802" y1="15.6122" x2="63.8798" y2="0.0547582" gradientUnits="userSpaceOnUse">
<stop stop-color="#202020"/>
<stop offset="1" stop-color="#616161"/>
</linearGradient>
<linearGradient id="paint6_linear_47_430" x1="58.4969" y1="23.4231" x2="31.0076" y2="0.127739" gradientUnits="userSpaceOnUse">
<stop stop-color="#FF0000"/>
<stop offset="1"/>
</linearGradient>
<linearGradient id="paint7_linear_47_430" x1="58.4969" y1="23.4231" x2="31.0076" y2="0.127739" gradientUnits="userSpaceOnUse">
<stop stop-color="#FF0000"/>
<stop offset="1"/>
</linearGradient>
<linearGradient id="paint8_linear_47_430" x1="50.742" y1="5.73333" x2="53.3221" y2="27.2342" gradientUnits="userSpaceOnUse">
<stop stop-color="#FC3110"/>
<stop offset="0.979167"/>
</linearGradient>
<linearGradient id="paint9_linear_47_430" x1="50.742" y1="5.73333" x2="53.3221" y2="27.2342" gradientUnits="userSpaceOnUse">
<stop stop-color="#FC3110"/>
<stop offset="0.979167"/>
</linearGradient>
<linearGradient id="paint10_linear_47_430" x1="50.742" y1="5.73333" x2="53.3221" y2="27.2342" gradientUnits="userSpaceOnUse">
<stop stop-color="#FC3110"/>
<stop offset="0.979167"/>
</linearGradient>
<linearGradient id="paint11_linear_47_430" x1="50.742" y1="5.73333" x2="53.3221" y2="27.2342" gradientUnits="userSpaceOnUse">
<stop stop-color="#FC3110"/>
<stop offset="0.979167"/>
</linearGradient>
<linearGradient id="paint12_linear_47_430" x1="50.742" y1="5.73333" x2="53.3221" y2="27.2342" gradientUnits="userSpaceOnUse">
<stop stop-color="#FC3110"/>
<stop offset="0.979167"/>
</linearGradient>
<linearGradient id="paint13_linear_47_430" x1="50.742" y1="5.73333" x2="53.3221" y2="27.2342" gradientUnits="userSpaceOnUse">
<stop stop-color="#FC3110"/>
<stop offset="0.979167"/>
</linearGradient>
<linearGradient id="paint14_linear_47_430" x1="50.742" y1="5.73333" x2="53.3221" y2="27.2342" gradientUnits="userSpaceOnUse">
<stop stop-color="#FC3110"/>
<stop offset="0.979167"/>
</linearGradient>
<linearGradient id="paint15_linear_47_430" x1="50.742" y1="5.73333" x2="53.3221" y2="27.2342" gradientUnits="userSpaceOnUse">
<stop stop-color="#FC3110"/>
<stop offset="0.979167"/>
</linearGradient>
<linearGradient id="paint16_linear_47_430" x1="50.742" y1="5.73333" x2="53.3221" y2="27.2342" gradientUnits="userSpaceOnUse">
<stop stop-color="#FC3110"/>
<stop offset="0.979167"/>
</linearGradient>
<linearGradient id="paint17_linear_47_430" x1="50.742" y1="5.73333" x2="53.3221" y2="27.2342" gradientUnits="userSpaceOnUse">
<stop stop-color="#FC3110"/>
<stop offset="0.979167"/>
</linearGradient>
<linearGradient id="paint18_linear_47_430" x1="50.742" y1="5.73333" x2="53.3221" y2="27.2342" gradientUnits="userSpaceOnUse">
<stop stop-color="#FC3110"/>
<stop offset="0.979167"/>
</linearGradient>
<linearGradient id="paint19_linear_47_430" x1="50.742" y1="5.73333" x2="53.3221" y2="27.2342" gradientUnits="userSpaceOnUse">
<stop stop-color="#FC3110"/>
<stop offset="0.979167"/>
</linearGradient>
<linearGradient id="paint20_linear_47_430" x1="19.2172" y1="19.6745" x2="16.21" y2="2.8156" gradientUnits="userSpaceOnUse">
<stop stop-color="#6B4500"/>
<stop offset="0.322917" stop-color="#D5B26B"/>
<stop offset="0.546875" stop-color="#F8F9D0"/>
<stop offset="1" stop-color="#997A3D"/>
</linearGradient>
<linearGradient id="paint21_linear_47_430" x1="18.6158" y1="16.7924" x2="6.1446" y2="7.34725" gradientUnits="userSpaceOnUse">
<stop stop-color="#110303"/>
<stop offset="1" stop-color="#616161"/>
</linearGradient>
<linearGradient id="paint22_linear_47_430" x1="16.2723" y1="2.0791" x2="16.2723" y2="17.6881" gradientUnits="userSpaceOnUse">
<stop stop-color="#FF0000"/>
<stop offset="1"/>
</linearGradient>
</defs>
</svg>
