<svg width="25" height="24" viewBox="0 0 25 24" fill="none" xmlns="http://www.w3.org/2000/svg">
<g clip-path="url(#clip0_28_631)">
<path d="M11.6162 4.34898C11.6331 4.09062 11.4373 3.86753 11.1789 3.8507C10.9205 3.83388 10.6974 4.02968 10.6806 4.28805C10.6638 4.54641 10.8596 4.7695 11.118 4.78633C11.3763 4.80316 11.5994 4.60735 11.6162 4.34898Z" fill="#FF6F55" stroke="#FF6F55" stroke-width="0.6"/>
<path d="M22.2588 10.799C22.4341 10.6084 22.4217 10.3119 22.2311 10.1366C22.0406 9.96136 21.7441 9.97374 21.5688 10.1643C21.3935 10.3548 21.4059 10.6514 21.5965 10.8266C21.787 11.0019 22.0835 10.9895 22.2588 10.799Z" fill="#FF6F55" stroke="#FF6F55" stroke-width="0.6"/>
<path d="M3.0633 9.98723C2.80465 9.99796 2.60365 10.2164 2.61443 10.475C2.62516 10.7337 2.84355 10.9347 3.10221 10.9239C3.36087 10.9132 3.56187 10.6948 3.55108 10.4361C3.54035 10.1774 3.32196 9.97649 3.0633 9.98723Z" fill="#FF6F55" stroke="#FF6F55" stroke-width="0.6"/>
<path d="M24.4529 10.7806L21.1918 4.05395C21.0787 3.82056 20.7977 3.72306 20.5643 3.83621L17.5309 5.30678C17.4188 5.3611 17.3329 5.45776 17.2921 5.57542C17.2811 5.60701 17.274 5.63945 17.2699 5.67217H14.797L13.4164 4.62292C13.2098 4.46598 12.9152 4.50615 12.7583 4.71268C12.6013 4.91921 12.6415 5.21387 12.848 5.37081L15.8319 7.63843C15.9581 7.74395 16.0626 7.88345 16.0845 8.05037C16.1056 8.21181 16.0467 8.37306 15.9555 8.50431C15.7455 8.80627 15.3491 8.92787 15.0209 8.73517L12.6108 7.3224C12.4238 7.21281 12.1926 7.24759 12.0449 7.39234L5.03827 11.3741L7.19831 5.77885C8.04558 5.13868 9.02705 5.05843 9.05972 5.05628C9.31706 5.05393 9.52495 4.84454 9.52495 4.58663C9.52495 4.32723 9.31467 4.11695 9.05526 4.11695C8.79801 4.11695 7.70686 4.26493 6.73172 4.95662L3.83105 3.83687C3.58894 3.7434 3.31711 3.86392 3.22373 4.10589L0.531515 11.0797C0.486656 11.1959 0.489797 11.3251 0.540234 11.439C0.590672 11.5529 0.684281 11.6421 0.800484 11.687L3.51286 12.7341C3.39117 13.1202 3.41812 13.5318 3.59077 13.9002C3.85608 14.4688 4.42233 14.8283 5.04675 14.8301C5.02416 14.9455 5.01375 15.063 5.01811 15.1808C5.02547 15.3802 5.07173 15.5723 5.15564 15.7519C5.41903 16.3148 6.0045 16.6375 6.63947 16.6374C6.64252 16.6374 6.64556 16.6372 6.64861 16.6372C6.60689 16.9416 6.65292 17.2519 6.78633 17.5372C6.98695 17.9649 7.36327 18.2823 7.81837 18.4079C7.99692 18.4573 8.18311 18.4752 8.3678 18.4613C8.34403 18.7416 8.39573 19.0258 8.51489 19.2804C8.65486 19.5804 8.88014 19.8271 9.16533 19.9933C9.61659 20.2584 10.1812 20.2822 10.6544 20.0609L13.6982 18.615L14.1201 19.0752C14.4338 19.4174 14.8637 19.591 15.295 19.591C15.6796 19.591 16.0655 19.4528 16.3707 19.173C16.696 18.8748 16.8689 18.4715 16.8851 18.062C16.8874 18.0621 16.8896 18.0624 16.8918 18.0624C16.9155 18.0635 16.939 18.064 16.9626 18.064C17.3618 18.064 17.7412 17.9168 18.0373 17.6453C18.3466 17.3617 18.5285 16.976 18.5512 16.5576C18.569 16.5582 18.5868 16.5588 18.6045 16.5588C19.0038 16.5588 19.3831 16.4116 19.6793 16.1401C19.9929 15.8525 20.1758 15.4601 20.1943 15.035C20.1944 15.033 20.1944 15.031 20.1944 15.0291C20.1964 15.0292 20.1983 15.0294 20.2003 15.0295C20.224 15.0305 20.2476 15.031 20.2711 15.031C20.6704 15.031 21.0497 14.8838 21.3458 14.6123C21.6595 14.3248 21.8424 13.9323 21.8609 13.5072C21.874 13.2058 21.8029 12.9137 21.6582 12.6574L24.2349 11.4082C24.4685 11.2949 24.566 11.014 24.4529 10.7806ZM3.93089 4.88232L6.19945 5.75809L3.84553 11.8556L1.57697 10.9798L3.93089 4.88232ZM10.254 19.2112C9.91767 19.3685 9.51126 19.2077 9.36117 18.872C9.28195 18.6948 9.28247 18.4896 9.36366 18.3131C9.4402 18.1466 9.5663 18.0608 9.71902 17.9727L11.6656 16.848C11.8845 16.7216 11.9634 16.4333 11.8407 16.2129C11.7179 15.9926 11.4315 15.9079 11.2087 16.0274L8.52258 17.4674C8.1833 17.6191 7.773 17.4596 7.6275 17.1174C7.55297 16.9421 7.55644 16.7413 7.63664 16.5685C7.71309 16.4039 7.83905 16.3131 7.99228 16.2275L10.7122 14.7035C10.9339 14.5794 11.0161 14.2903 10.8942 14.0679C10.7722 13.8453 10.4835 13.7599 10.2599 13.8803L7.05656 15.6055C6.77869 15.7319 6.41391 15.7494 6.16364 15.5509C5.90231 15.3438 5.91178 14.9841 6.08658 14.7246C6.1987 14.558 6.35203 14.4616 6.52383 14.367L9.7268 12.6076C9.94894 12.4855 10.0339 12.1981 9.91477 11.9749C9.79566 11.7518 9.50934 11.6624 9.28444 11.779L5.32866 13.8307C5.00034 13.9808 4.6028 13.8343 4.44591 13.511C4.35928 13.3326 4.35595 13.1229 4.43691 12.9418C4.51331 12.7709 4.64203 12.6796 4.79911 12.5905L12.3855 8.27926L14.5456 9.54545C15.1222 9.88388 15.871 9.82866 16.3899 9.40693C16.8756 9.01224 17.1429 8.35487 16.9787 7.73921C16.8905 7.40884 16.6799 7.10396 16.4082 6.89668L16.033 6.61159H17.6415L19.4113 10.2621C19.1965 10.1415 18.955 10.0716 18.7016 10.0606C18.2767 10.0423 17.8697 10.1904 17.556 10.4779C17.3417 10.6743 17.1886 10.9198 17.1071 11.1911C16.9352 11.1189 16.7502 11.0768 16.5583 11.0685C16.1331 11.0499 15.7264 11.1982 15.4127 11.4857C15.099 11.7732 14.9162 12.1657 14.8977 12.5908C14.8857 12.8677 14.9448 13.1366 15.0666 13.3773C14.8391 13.4454 14.628 13.5643 14.4478 13.7296C14.1342 14.0171 13.9513 14.4095 13.9328 14.8346C13.9164 15.2116 14.0313 15.574 14.258 15.87C14.0418 15.9376 13.8368 16.0521 13.6591 16.215C13.2043 16.6319 13.0478 17.254 13.2003 17.8118L10.254 19.2112ZM15.736 18.4806C15.4704 18.7241 15.0561 18.7061 14.8125 18.4404L14.2537 17.8308C14.0101 17.5651 14.0281 17.1509 14.2938 16.9073C14.419 16.7925 14.5773 16.7358 14.7352 16.7358C14.9122 16.7358 15.0885 16.807 15.2173 16.9474L15.7762 17.5571C16.0197 17.8228 16.0017 18.2371 15.736 18.4806ZM17.4027 16.9528C17.137 17.1963 16.7227 17.1783 16.4792 16.9126L15.0424 15.3453C14.8395 15.124 14.8153 14.7812 14.9854 14.5336C15.1854 14.2424 15.5942 14.1637 15.8877 14.361C15.8877 14.361 17.4899 16.1055 17.5219 16.1352C17.5874 16.244 17.6197 16.3696 17.614 16.4994C17.6064 16.6738 17.5313 16.8348 17.4027 16.9528ZM19.0447 15.4475C18.9159 15.5656 18.7482 15.6262 18.5746 15.6188C18.4448 15.6131 18.3225 15.57 18.2198 15.4953C18.193 15.4609 16.0073 13.1015 16.0073 13.1015C15.7669 12.8392 15.7845 12.4184 16.0475 12.178C16.3106 11.9376 16.7299 11.9551 16.971 12.2182L19.0848 14.5241C19.2028 14.6528 19.2636 14.8197 19.256 14.9941C19.2484 15.1686 19.1734 15.3296 19.0447 15.4475ZM20.7113 13.9197C20.4486 14.1605 20.0285 14.1421 19.7879 13.8796L18.1507 12.0937C17.9102 11.8313 17.9278 11.4106 18.1908 11.1702C18.4539 10.9298 18.8732 10.9473 19.1143 11.2104L20.7515 12.9963C20.9922 13.2589 20.9739 13.679 20.7113 13.9197ZM21.2146 11.8285L18.3633 5.94713L20.5515 4.88635L23.4027 10.7677L21.2146 11.8285Z" fill="#FF6F55" stroke="#FF6F55" stroke-width="0.6"/>
</g>
<defs>
<clipPath id="clip0_28_631">
<rect width="24" height="24" fill="white" transform="translate(0.5)"/>
</clipPath>
</defs>
</svg>
