<svg width="25" height="24" viewBox="0 0 25 24" fill="none" xmlns="http://www.w3.org/2000/svg">
<path fill-rule="evenodd" clip-rule="evenodd" d="M15.9142 1H5.5C4.39543 1 3.5 1.89543 3.5 3V21C3.5 22.1046 4.39543 23 5.5 23H19.5C20.6046 23 21.5 22.1046 21.5 21V6.58579L15.9142 1ZM5.5 3H13.5V7C13.5 8.10457 14.3954 9 15.5 9H19.5V21H5.5V3ZM15.5 7V3.41421L19.0858 7H15.5ZM13.5 18V13.4142L14.7929 14.7071L16.2071 13.2929L12.5 9.58579L8.79289 13.2929L10.2071 14.7071L11.5 13.4142V18H13.5Z" fill="white"/>
</svg>
