<svg width="32" height="32" viewBox="0 0 32 32" fill="none" xmlns="http://www.w3.org/2000/svg">
<g clip-path="url(#clip0_99_398)">
<rect width="32" height="32" rx="16" fill="#A08961"/>
<path d="M12.6674 16C12.6674 14.1591 14.1594 12.6664 16.0002 12.6664C17.8411 12.6664 19.3338 14.1591 19.3338 16C19.3338 17.8409 17.8411 19.3336 16.0002 19.3336C14.1594 19.3336 12.6674 17.8409 12.6674 16ZM10.8654 16C10.8654 18.836 13.1642 21.1349 16.0002 21.1349C18.8362 21.1349 21.1351 18.836 21.1351 16C21.1351 13.164 18.8362 10.8651 16.0002 10.8651C13.1642 10.8651 10.8654 13.164 10.8654 16ZM20.1384 10.6615C20.1383 10.8989 20.2086 11.1309 20.3404 11.3283C20.4722 11.5257 20.6595 11.6796 20.8787 11.7705C21.098 11.8614 21.3392 11.8852 21.572 11.839C21.8048 11.7928 22.0187 11.6786 22.1866 11.5109C22.3545 11.3431 22.4689 11.1293 22.5153 10.8966C22.5616 10.6638 22.538 10.4225 22.4472 10.2032C22.3565 9.98392 22.2028 9.79644 22.0055 9.6645C21.8082 9.53257 21.5762 9.4621 21.3389 9.462H21.3384C21.0203 9.46215 20.7152 9.58856 20.4902 9.81347C20.2652 10.0384 20.1387 10.3434 20.1384 10.6615ZM11.9602 24.1398C10.9853 24.0954 10.4554 23.933 10.1032 23.7958C9.63632 23.614 9.3032 23.3975 8.95296 23.0478C8.60272 22.698 8.38592 22.3652 8.20496 21.8983C8.06768 21.5463 7.90528 21.0162 7.86096 20.0413C7.81248 18.9872 7.8028 18.6706 7.8028 16.0001C7.8028 13.3296 7.81328 13.0138 7.86096 11.9589C7.90536 10.9839 8.06896 10.4549 8.20496 10.1018C8.38672 9.63496 8.6032 9.30184 8.95296 8.9516C9.30272 8.60136 9.63552 8.38456 10.1032 8.2036C10.4552 8.06632 10.9853 7.90392 11.9602 7.8596C13.0143 7.81112 13.331 7.80144 16.0002 7.80144C18.6695 7.80144 18.9865 7.81192 20.0414 7.8596C21.0164 7.904 21.5454 8.0676 21.8985 8.2036C22.3654 8.38456 22.6985 8.60184 23.0487 8.9516C23.399 9.30136 23.615 9.63496 23.7967 10.1018C23.934 10.4538 24.0964 10.9839 24.1407 11.9589C24.1892 13.0138 24.1989 13.3296 24.1989 16.0001C24.1989 18.6706 24.1892 18.9863 24.1407 20.0413C24.0963 21.0162 23.9331 21.5462 23.7967 21.8983C23.615 22.3652 23.3985 22.6983 23.0487 23.0478C22.699 23.3972 22.3654 23.614 21.8985 23.7958C21.5465 23.933 21.0164 24.0954 20.0414 24.1398C18.9874 24.1882 18.6707 24.1979 16.0002 24.1979C13.3298 24.1979 13.014 24.1882 11.9602 24.1398ZM11.8774 6.06056C10.8129 6.10904 10.0854 6.27784 9.45016 6.52504C8.79224 6.78032 8.23528 7.1228 7.67872 7.67848C7.12216 8.23416 6.78056 8.792 6.52528 9.44992C6.27808 10.0856 6.10928 10.8126 6.0608 11.8772C6.01152 12.9434 6.00024 13.2843 6.00024 16C6.00024 18.7157 6.01152 19.0566 6.0608 20.1228C6.10928 21.1874 6.27808 21.9144 6.52528 22.5501C6.78056 23.2076 7.12224 23.7661 7.67872 24.3215C8.2352 24.877 8.79224 25.219 9.45016 25.475C10.0866 25.7222 10.8129 25.891 11.8774 25.9394C12.9442 25.9879 13.2846 26 16.0002 26C18.7159 26 19.0568 25.9887 20.123 25.9394C21.1877 25.891 21.9146 25.7222 22.5503 25.475C23.2078 25.219 23.7652 24.8772 24.3218 24.3215C24.8783 23.7658 25.2192 23.2076 25.4752 22.5501C25.7224 21.9144 25.892 21.1874 25.9397 20.1228C25.9882 19.0558 25.9994 18.7157 25.9994 16C25.9994 13.2843 25.9882 12.9434 25.9397 11.8772C25.8912 10.8126 25.7224 10.0852 25.4752 9.44992C25.2192 8.7924 24.8774 8.23504 24.3218 7.67848C23.7661 7.12192 23.2078 6.78032 22.5511 6.52504C21.9146 6.27784 21.1876 6.10824 20.1238 6.06056C19.0576 6.01208 18.7167 6 16.001 6C13.2854 6 12.9442 6.01128 11.8774 6.06056Z" fill="white"/>
</g>
<defs>
<clipPath id="clip0_99_398">
<rect width="32" height="32" fill="white"/>
</clipPath>
</defs>
</svg>
