<svg width="127" height="34" viewBox="0 0 127 34" fill="none" xmlns="http://www.w3.org/2000/svg">
<path d="M0.01945 30.8037C-0.0889467 31.3453 0.262188 31.8722 0.80373 31.9806L9.62868 33.747C10.1702 33.8554 10.6971 33.5042 10.8055 32.9627C10.9139 32.4212 10.5628 31.8943 10.0212 31.7859L2.17682 30.2157L3.74698 22.3713C3.85537 21.8298 3.50424 21.3029 2.9627 21.1945C2.42115 21.0861 1.89427 21.4372 1.78588 21.9788L0.01945 30.8037ZM1.55457 31.8321C2.85957 30.9624 4.16761 30.1149 5.47999 29.2891L4.41485 27.5963C3.08738 28.4316 1.76467 29.2887 0.44543 30.1679L1.55457 31.8321ZM13.5219 24.534C16.2557 23.0205 19.019 21.5946 21.8228 20.2531L20.9596 18.449C18.1195 19.8079 15.3211 21.2519 12.5532 22.7842L13.5219 24.534ZM30.3656 16.4789C33.2285 15.3162 36.1424 14.2325 39.118 13.2246L38.4764 11.3303C35.4638 12.3507 32.5129 13.4482 29.6131 14.6259L30.3656 16.4789ZM48.0506 10.4778C51.004 9.65807 54.0231 8.90398 57.1171 8.21292L56.6811 6.26101C53.5551 6.95922 50.503 7.72152 47.5157 8.55068L48.0506 10.4778ZM66.2972 6.38508C69.3047 5.85552 72.3842 5.37784 75.543 4.94995L75.2746 2.96805C72.0908 3.39931 68.9852 3.88101 65.9504 4.41538L66.2972 6.38508ZM84.8415 3.85601C87.8792 3.5498 90.9892 3.28367 94.1774 3.05602L94.0349 1.0611C90.8285 1.29005 87.6991 1.55782 84.6409 1.86609L84.8415 3.85601ZM103.537 2.50738C106.591 2.36524 109.714 2.25395 112.912 2.17228L112.861 0.172934C109.65 0.254939 106.513 0.366712 103.444 0.509538L103.537 2.50738ZM122.3 2.01809C123.85 2.00599 125.416 2 127 2V0C125.411 0 123.84 0.00600767 122.285 0.0181503L122.3 2.01809Z" fill="#FF6F55"/>
</svg>
