<svg width="32" height="33" viewBox="0 0 32 33" fill="none" xmlns="http://www.w3.org/2000/svg">
<g clip-path="url(#clip0_35_1802)">
<rect y="0.5" width="32" height="32" rx="16" fill="#A08961"/>
<path fill-rule="evenodd" clip-rule="evenodd" d="M16 28.3276L16.6577 27.7533C22.1887 22.9237 25 18.7068 25 15C25 9.75066 20.9029 6 16 6C11.0971 6 7 9.75066 7 15C7 18.7068 9.81131 22.9237 15.3423 27.7533L16 28.3276ZM16 25.6634C11.3066 21.4335 9 17.8492 9 15C9 10.8966 12.1641 8 16 8C19.8359 8 23 10.8966 23 15C23 17.8492 20.6934 21.4335 16 25.6634ZM16 10C18.7614 10 21 12.2386 21 15C21 17.7614 18.7614 20 16 20C13.2386 20 11 17.7614 11 15C11 12.2386 13.2386 10 16 10ZM13 15C13 13.3431 14.3431 12 16 12C17.6569 12 19 13.3431 19 15C19 16.6569 17.6569 18 16 18C14.3431 18 13 16.6569 13 15Z" fill="white"/>
</g>
<defs>
<clipPath id="clip0_35_1802">
<rect width="32" height="32" fill="white" transform="translate(0 0.5)"/>
</clipPath>
</defs>
</svg>
