<svg width="32" height="32" viewBox="0 0 32 32" fill="none" xmlns="http://www.w3.org/2000/svg">
<g clip-path="url(#clip0_35_1793)">
<rect width="32" height="32" rx="16" fill="#A08961"/>
<path fill-rule="evenodd" clip-rule="evenodd" d="M14.8565 12.3379C15.3746 11.6397 15.5604 10.9038 14.9744 10.2543C13.6595 8.41433 12.7751 7.27649 12.2204 6.72854C11.1659 5.6868 9.43112 5.82771 8.51779 6.72765C8.02723 7.21101 7.86116 7.377 7.35747 7.88861C4.55182 10.6958 6.26285 16.63 10.8114 21.183C15.3589 25.735 21.2926 27.4469 24.1041 24.6338C24.5689 24.1858 24.9624 23.792 25.2728 23.464C26.1678 22.518 26.3037 20.8597 25.2669 19.7824C24.7354 19.2301 23.6503 18.3885 21.7329 17.0169C21.1457 16.4918 20.4494 16.6056 19.811 17.0244C19.504 17.2259 19.2805 17.4297 18.8585 17.8521L18.0923 18.6187C17.9914 18.7197 16.621 18.0334 15.2907 16.7018C13.9597 15.3695 13.2739 13.9991 13.3743 13.8986L14.1411 13.1314C14.275 12.9974 14.339 12.9325 14.4211 12.8463C14.5921 12.6665 14.7337 12.5034 14.8565 12.3379ZM19.5057 20.0329L20.2721 19.2661C20.5044 19.0337 20.6549 18.8907 20.7773 18.7922C22.457 19.9984 23.4297 20.7568 23.8271 21.1697C24.0656 21.4176 24.0286 21.8699 23.8212 22.089C23.5342 22.3924 23.1613 22.7655 22.7037 23.2068C20.8857 25.0256 16.0959 23.6437 12.2251 19.7691C8.35315 15.8933 6.97188 11.1028 8.7762 9.29748C9.27786 8.78798 9.4368 8.62912 9.92035 8.15265C10.1017 7.97401 10.5955 7.93389 10.8161 8.15176C11.2431 8.57364 12.0353 9.58799 13.2007 11.2113C13.1404 11.2862 13.065 11.3709 12.9733 11.4672C12.906 11.538 12.85 11.5948 12.7274 11.7175L11.9614 12.484C10.6582 13.787 11.768 16.0047 13.877 18.1157C15.9845 20.2253 18.203 21.3364 19.5057 20.0329ZM17.655 6.06944C21.9783 6.59348 25.4064 10.0215 25.9304 14.3448L23.955 14.6741C23.5736 11.1917 20.8081 8.4263 17.3258 8.04488L17.655 6.06944V6.06944ZM16.9963 10.022C19.6378 10.2583 21.7416 12.3621 21.9778 15.0036L19.9961 15.3339C19.912 13.533 18.4668 12.0879 16.666 12.0038L16.9963 10.022V10.022Z" fill="white"/>
</g>
<defs>
<clipPath id="clip0_35_1793">
<rect width="32" height="32" fill="white"/>
</clipPath>
</defs>
</svg>
