<svg width="33" height="32" viewBox="0 0 33 32" fill="none" xmlns="http://www.w3.org/2000/svg">
<g clip-path="url(#clip0_58_815)">
<rect x="0.363281" width="32" height="32" rx="16" fill="#A08961"/>
<path fill-rule="evenodd" clip-rule="evenodd" d="M19.9203 23.9229C21.0386 24.4121 21.458 23.387 21.458 23.387L24.4169 8.52239C24.3936 7.52054 23.0423 8.12631 23.0423 8.12631L6.47687 14.6267C6.47687 14.6267 5.68472 14.9062 5.75461 15.3955C5.82451 15.8848 6.45357 16.1178 6.45357 16.1178L10.6241 17.5157C10.6241 17.5157 11.8822 21.6396 12.1385 22.4317C12.3715 23.2006 12.5811 23.2239 12.5811 23.2239C12.8141 23.3171 13.0238 23.154 13.0238 23.154L15.7265 20.7076L19.9203 23.9229ZM20.6425 11.1551C20.6425 11.1551 21.225 10.8056 21.2017 11.1551C21.2017 11.1551 21.2949 11.2017 20.992 11.5279C20.7124 11.8075 14.1189 17.7254 13.2335 18.5175C13.1636 18.5641 13.117 18.634 13.117 18.7272L12.8607 20.9173C12.8141 21.1503 12.5112 21.1736 12.4413 20.9639L11.3463 17.3759C11.2997 17.2361 11.3463 17.073 11.4861 16.9798L20.6425 11.1551Z" fill="white"/>
</g>
<defs>
<clipPath id="clip0_58_815">
<rect width="32" height="32" fill="white" transform="translate(0.363281)"/>
</clipPath>
</defs>
</svg>
