<svg width="33" height="32" viewBox="0 0 33 32" fill="none" xmlns="http://www.w3.org/2000/svg">
<g clip-path="url(#clip0_58_814)">
<rect x="0.363281" width="32" height="32" rx="16" fill="#A08961"/>
<path d="M24.1989 8.12303C23.6697 7.63645 21.527 6.07855 16.7509 6.0572C16.7509 6.0572 11.1211 5.71575 8.37663 8.234C6.8486 9.76203 6.31081 11.9943 6.25532 14.7687C6.19983 17.5387 6.12727 22.7332 11.1339 24.1417H11.1382L11.1339 26.2886C11.1339 26.2886 11.104 27.1593 11.676 27.3343C12.3674 27.5477 12.7772 26.8862 13.4387 26.1734C13.8015 25.7807 14.3009 25.2087 14.6808 24.7691C18.1039 25.0551 20.7374 24.3978 21.0362 24.2996C21.7276 24.0734 25.6416 23.574 26.2776 18.3796C26.9349 13.0358 25.9575 9.65105 24.1989 8.12303ZM24.7794 18.004C24.2416 22.3405 21.0703 22.6137 20.4856 22.8015C20.238 22.8826 17.9247 23.4588 15.0137 23.2667C15.0137 23.2667 12.8455 25.8831 12.1711 26.5618C12.0644 26.6685 11.9406 26.7112 11.8595 26.6898C11.7443 26.6599 11.7101 26.5234 11.7144 26.3228C11.7144 26.0325 11.7315 22.7502 11.7315 22.7502C11.7272 22.7502 11.7272 22.7502 11.7315 22.7502C7.4931 21.5765 7.74066 17.1546 7.78761 14.8412C7.83456 12.5278 8.26992 10.6285 9.5632 9.35228C11.8808 7.25231 16.6655 7.56389 16.6655 7.56389C20.7033 7.58096 22.6368 8.79741 23.0849 9.20289C24.5746 10.4834 25.3343 13.5351 24.7794 18.004Z" fill="white"/>
<path d="M18.7187 14.9223C18.5778 14.9223 18.4583 14.8114 18.4498 14.6662C18.4028 13.7486 17.9717 13.3004 17.0925 13.2534C16.9431 13.2449 16.8278 13.1169 16.8364 12.9675C16.8449 12.8181 16.973 12.7028 17.1224 12.7114C18.2833 12.7754 18.9321 13.4412 18.9918 14.6364C19.0004 14.7857 18.8851 14.9138 18.7357 14.9181C18.7272 14.9223 18.7229 14.9223 18.7187 14.9223Z" fill="white"/>
<path d="M20.1015 15.3834H20.0972C19.9478 15.3791 19.8283 15.2553 19.8326 15.106C19.8539 14.184 19.5893 13.4371 19.0259 12.8225C18.4668 12.2078 17.6942 11.8749 16.6741 11.8023C16.5247 11.7895 16.4137 11.6615 16.4265 11.5121C16.4393 11.3627 16.5674 11.2517 16.7168 11.2645C17.8692 11.3499 18.7783 11.7511 19.4271 12.4597C20.0801 13.1724 20.396 14.0645 20.3747 15.1188C20.3704 15.2681 20.2466 15.3834 20.1015 15.3834Z" fill="white"/>
<path d="M21.5185 15.9381C21.3691 15.9381 21.2496 15.8186 21.2496 15.6692C21.2368 14.0174 20.763 12.7583 19.7984 11.815C18.8466 10.8845 17.6387 10.4108 16.2174 10.398C16.068 10.398 15.9485 10.2742 15.9485 10.1248C15.9485 9.97541 16.0723 9.8559 16.2174 9.8559C17.7838 9.86871 19.1155 10.3937 20.1698 11.4266C21.2283 12.4595 21.7703 13.8851 21.7874 15.6607C21.7917 15.8143 21.6722 15.9381 21.5185 15.9381C21.5228 15.9381 21.5228 15.9381 21.5185 15.9381Z" fill="white"/>
<path d="M17.1563 18.2643C17.1563 18.2643 17.5362 18.2984 17.7411 18.0466L18.138 17.5472C18.3301 17.2997 18.7953 17.1417 19.2477 17.3936C19.4996 17.5344 19.9563 17.8161 20.238 18.0253C20.541 18.2472 21.1556 18.7594 21.1599 18.7637C21.4544 19.0112 21.5227 19.374 21.3221 19.7624C21.3221 19.7624 21.3221 19.7667 21.3221 19.771C21.1172 20.1338 20.8398 20.4752 20.4941 20.7911C20.4898 20.7911 20.4898 20.7953 20.4855 20.7953C20.1996 21.0344 19.9179 21.1709 19.6447 21.2008C19.6105 21.2094 19.5721 21.2094 19.5209 21.2094C19.4014 21.2094 19.2819 21.1923 19.1624 21.1539L19.1538 21.1411C18.727 21.0216 18.0185 20.7228 16.8405 20.0697C16.0722 19.6472 15.4362 19.2161 14.8942 18.785C14.6082 18.5588 14.3179 18.307 14.0192 18.0082C14.0106 17.9997 13.9978 17.9868 13.9893 17.9783C13.9808 17.9698 13.9679 17.957 13.9594 17.9484C13.9509 17.9399 13.9381 17.9271 13.9295 17.9186C13.921 17.91 13.9082 17.8972 13.8997 17.8887C13.6051 17.5899 13.3491 17.2997 13.1228 17.0137C12.6917 16.4759 12.2607 15.8357 11.8381 15.0674C11.1851 13.8851 10.8863 13.1766 10.7668 12.754L10.754 12.7455C10.7156 12.626 10.6985 12.5064 10.6985 12.3869C10.6985 12.3357 10.6985 12.2973 10.707 12.2632C10.7412 11.9857 10.8778 11.7083 11.1125 11.4223C11.1125 11.418 11.1168 11.418 11.1168 11.4138C11.4326 11.0638 11.7741 10.7906 12.1369 10.5857C12.1369 10.5857 12.1411 10.5857 12.1454 10.5857C12.5296 10.3851 12.8924 10.4534 13.1442 10.7479C13.1442 10.7479 13.6606 11.3668 13.8826 11.6699C14.0917 11.9558 14.3734 12.4083 14.5143 12.6601C14.7661 13.1125 14.6082 13.5778 14.3606 13.7698L13.8612 14.1668C13.6094 14.3717 13.6436 14.7515 13.6436 14.7515C13.6436 14.7515 14.382 17.56 17.1563 18.2643Z" fill="white"/>
</g>
<defs>
<clipPath id="clip0_58_814">
<rect width="32" height="32" fill="white" transform="translate(0.363281)"/>
</clipPath>
</defs>
</svg>
