<svg width="33" height="32" viewBox="0 0 33 32" fill="none" xmlns="http://www.w3.org/2000/svg">
<g clip-path="url(#clip0_58_813)">
<rect x="0.363281" width="32" height="32" rx="16" fill="#A08961"/>
<path d="M23.5304 8.80766C21.8151 7.04189 19.4439 6.08334 17.0223 6.08334C11.8764 6.08334 7.73942 10.2707 7.78987 15.3662C7.78987 16.9806 8.24392 18.5446 9.00068 19.9572L7.68896 24.75L12.5827 23.4887C13.9448 24.2455 15.4583 24.5987 16.9718 24.5987C22.0673 24.5987 26.2043 20.4113 26.2043 15.3158C26.2043 12.8437 25.2457 10.523 23.5304 8.80766ZM17.0223 23.0347C15.6601 23.0347 14.298 22.6815 13.1376 21.9752L12.8349 21.8239L9.90878 22.5806L10.6655 19.705L10.4637 19.4023C8.24392 15.8203 9.30338 11.0779 12.9358 8.85811C16.5682 6.63829 21.2601 7.69775 23.48 11.3302C25.6998 14.9626 24.6403 19.6545 21.0079 21.8743C19.8475 22.6311 18.4349 23.0347 17.0223 23.0347ZM21.4619 17.4347L20.907 17.1824C20.907 17.1824 20.0998 16.8293 19.5953 16.577C19.5448 16.577 19.4944 16.5266 19.4439 16.5266C19.2926 16.5266 19.1917 16.577 19.0908 16.6275C19.0908 16.6275 19.0403 16.6779 18.334 17.4851C18.2836 17.586 18.1827 17.6365 18.0818 17.6365H18.0313C17.9809 17.6365 17.88 17.586 17.8295 17.5356L17.5773 17.4347C17.0223 17.1824 16.5178 16.8797 16.1142 16.4761C16.0133 16.3752 15.8619 16.2743 15.761 16.1734C15.4079 15.8203 15.0547 15.4167 14.8025 14.9626L14.752 14.8617C14.7016 14.8113 14.7016 14.7608 14.6511 14.6599C14.6511 14.559 14.6511 14.4581 14.7016 14.4077C14.7016 14.4077 14.9034 14.1554 15.0547 14.0041C15.1556 13.9032 15.2061 13.7518 15.307 13.6509C15.4079 13.4996 15.4583 13.2978 15.4079 13.1464C15.3574 12.8941 14.752 11.532 14.6007 11.2293C14.4998 11.0779 14.3989 11.0275 14.2475 10.977H14.0962C13.9953 10.977 13.8439 10.977 13.6926 10.977C13.5917 10.977 13.4908 11.0275 13.3899 11.0275L13.3394 11.0779C13.2385 11.1284 13.1376 11.2293 13.0367 11.2797C12.9358 11.3806 12.8854 11.4815 12.7845 11.5824C12.4313 12.0365 12.2295 12.5914 12.2295 13.1464C12.2295 13.55 12.3304 13.9536 12.4818 14.3068L12.5322 14.4581C12.9863 15.4167 13.5917 16.2743 14.3989 17.0311L14.6007 17.2329C14.752 17.3842 14.9034 17.4851 15.0043 17.6365C16.0637 18.5446 17.2746 19.2005 18.6367 19.5536C18.7881 19.6041 18.9899 19.6041 19.1412 19.6545C19.2926 19.6545 19.4944 19.6545 19.6457 19.6545C19.898 19.6545 20.2007 19.5536 20.4025 19.4527C20.5538 19.3518 20.6547 19.3518 20.7556 19.2509L20.8565 19.15C20.9574 19.0491 21.0583 18.9987 21.1592 18.8977C21.2601 18.7968 21.361 18.6959 21.4115 18.595C21.5124 18.3932 21.5628 18.141 21.6133 17.8887C21.6133 17.7878 21.6133 17.6365 21.6133 17.5356C21.6133 17.5356 21.5628 17.4851 21.4619 17.4347Z" fill="white"/>
</g>
<defs>
<clipPath id="clip0_58_813">
<rect width="32" height="32" fill="white" transform="translate(0.363281)"/>
</clipPath>
</defs>
</svg>
