<svg width="32" height="32" viewBox="0 0 32 32" fill="none" xmlns="http://www.w3.org/2000/svg">
<g clip-path="url(#clip0_99_397)">
<rect width="32" height="32" rx="16" fill="#A08961"/>
<path fill-rule="evenodd" clip-rule="evenodd" d="M23.8253 9.42687C24.682 9.65751 25.3574 10.333 25.5881 11.1896C26.0164 12.7547 25.9999 16.0166 25.9999 16.0166C25.9999 16.0166 25.9999 19.2621 25.5881 20.8272C25.3574 21.6838 24.682 22.3593 23.8253 22.5899C22.2602 23.0018 16 23.0018 16 23.0018C16 23.0018 9.75616 23.0018 8.17462 22.5734C7.31795 22.3428 6.6425 21.6673 6.41186 20.8107C6 19.2621 6 16.0002 6 16.0002C6 16.0002 6 12.7547 6.41186 11.1896C6.6425 10.333 7.33443 9.64104 8.17462 9.4104C9.73969 8.99854 16 8.99854 16 8.99854C16 8.99854 22.2602 8.99854 23.8253 9.42687ZM19.2124 16L14.0065 18.9983V13.0016L19.2124 16Z" fill="white"/>
</g>
<defs>
<clipPath id="clip0_99_397">
<rect width="32" height="32" fill="white"/>
</clipPath>
</defs>
</svg>
